<svg class="animated" id="freepik_stories-dragon" xmlns="http://www.w3.org/2000/svg" viewBox="0 0 500 500" version="1.1" xmlns:xlink="http://www.w3.org/1999/xlink" xmlns:svgjs="http://svgjs.com/svgjs"><style>svg#freepik_stories-dragon:not(.animated) .animable {opacity: 0;}svg#freepik_stories-dragon.animated #freepik--Birds--inject-56 {animation: 1s 1 forwards cubic-bezier(.36,-0.01,.5,1.38) slideDown,1.5s Infinite  linear floating;animation-delay: 0s,1s;}svg#freepik_stories-dragon.animated #freepik--Dragon--inject-56 {animation: 1.7s 1 forwards cubic-bezier(.36,-0.01,.5,1.38) slideLeft;animation-delay: 0s;}            @keyframes slideDown {                0% {                    opacity: 0;                    transform: translateY(-30px);                }                100% {                    opacity: 1;                    transform: translateY(0);                }            }                    @keyframes floating {                0% {                    opacity: 1;                    transform: translateY(0px);                }                50% {                    transform: translateY(-10px);                }                100% {                    opacity: 1;                    transform: translateY(0px);                }            }                    @keyframes slideLeft {                0% {                    opacity: 0;                    transform: translateX(-30px);                }                100% {                    opacity: 1;                    transform: translateX(0);                }            }        </style><g id="freepik--background-complete--inject-56" class="animable" style="transform-origin: 247.625px 265.155px;"><path d="M159.91,283.54c.59-4.3-5.49-7.84-10-8.21-2.18-.17-4.44.16-6.5-.56-4.47-1.56-6.25-7.33-10.61-9.17-3.26-1.37-7-.15-10.17,1.44s-6.28,3.59-9.81,3.82c-3.07.19-6.41-.94-9.09.56-2,1.11-3.05,3.42-4.9,4.78s-4.16,1.61-6.4,1.74-4.56.14-6.6,1.07-3.72,3.09-3.3,5.3Z" style="fill: rgb(235, 235, 235); transform-origin: 121.208px 274.658px;" id="elxp51tepkntd" class="animable"></path><path d="M458.72,172.74c.59-4.28-5.45-7.8-10-8.16-2.17-.18-4.41.15-6.46-.56-4.44-1.55-6.22-7.29-10.55-9.11-3.24-1.37-7-.15-10.11,1.43s-6.24,3.57-9.75,3.79c-3.05.2-6.36-.94-9,.55-2,1.12-3,3.41-4.87,4.76s-4.13,1.6-6.36,1.72-4.53.15-6.55,1.08-3.71,3.07-3.29,5.26Z" style="fill: rgb(245, 245, 245); transform-origin: 420.238px 163.908px;" id="eldfb4owlu6y" class="animable"></path><path d="M462.76,86.68c.59-4.28-5.45-7.8-10-8.16-2.17-.18-4.41.15-6.46-.56-4.44-1.55-6.22-7.28-10.55-9.11-3.24-1.37-7-.15-10.11,1.43s-6.24,3.57-9.75,3.79c-3.05.2-6.36-.93-9,.56-2,1.11-3,3.4-4.87,4.75s-4.13,1.61-6.36,1.73-4.53.14-6.56,1.07-3.7,3.07-3.28,5.26Z" style="fill: rgb(250, 250, 250); transform-origin: 424.278px 77.848px;" id="elbi63dmzjhq" class="animable"></path><path d="M121.14,146.18c.59-4.31-5.48-7.85-10-8.22-2.17-.17-4.43.16-6.49-.56-4.47-1.55-6.26-7.33-10.62-9.16-3.26-1.38-7-.16-10.17,1.43s-6.28,3.6-9.81,3.82c-3.07.2-6.4-.94-9.09.56-2,1.12-3,3.42-4.9,4.78s-4.16,1.62-6.39,1.74-4.56.14-6.6,1.08-3.73,3.09-3.31,5.29Z" style="fill: rgb(235, 235, 235); transform-origin: 82.4377px 137.29px;" id="elx15z7s7ityj" class="animable"></path><path d="M243.37,74.7c.75-5.44-6.93-9.92-12.7-10.39-2.75-.22-5.61.2-8.22-.71-5.65-2-7.9-9.26-13.41-11.59-4.13-1.73-8.87-.19-12.86,1.82s-8,4.54-12.41,4.83c-3.88.25-8.1-1.19-11.49.7-2.53,1.42-3.86,4.33-6.19,6s-5.26,2-8.09,2.2-5.77.18-8.34,1.36-4.72,3.91-4.18,6.69Z" style="fill: rgb(245, 245, 245); transform-origin: 194.409px 63.4351px;" id="el0r6co8oxhjpm" class="animable"></path><polygon points="422.48 396.43 406.85 340.9 388.45 392.49 394.54 390.7 379.49 421.51 388.09 418.64 377.7 438.71 424.27 438.71 420.33 420.08 424.27 425.45 415.66 392.95 422.48 396.43" style="fill: rgb(245, 245, 245); transform-origin: 400.985px 389.805px;" id="elpxi7styzlhb" class="animable"></polygon><polygon points="153.17 397.68 168.91 331.72 193.59 392.99 186.36 390.87 204.23 427.46 194.02 424.06 206.36 447.89 151.04 447.89 155.72 425.76 151.04 432.14 161.28 393.54 153.17 397.68" style="fill: rgb(245, 245, 245); transform-origin: 178.7px 389.805px;" id="ellbj9ymde91r" class="animable"></polygon><polygon points="34.74 425.02 51.68 354.05 78.23 419.98 70.45 417.69 89.68 457.07 78.69 453.41 91.97 479.05 32.45 479.05 37.48 455.24 32.45 462.11 43.46 420.57 34.74 425.02" style="fill: rgb(245, 245, 245); transform-origin: 62.21px 416.55px;" id="el8htcu1f2rh" class="animable"></polygon></g><g id="freepik--Floor--inject-56" class="animable" style="transform-origin: 250px 478.51px;"><path d="M478.09,478.51c0,.15-102.13.26-228.08.26s-228.1-.11-228.1-.26,102.11-.26,228.1-.26S478.09,478.37,478.09,478.51Z" style="fill: rgb(38, 50, 56); transform-origin: 250px 478.51px;" id="elpdz50c6lnbk" class="animable"></path></g><g id="freepik--Birds--inject-56" class="animable" style="transform-origin: 94.38px 68.24px;"><path d="M87.48,84.5s-.72-.25-2.06-.54a16.46,16.46,0,0,0-5.75-.23,15.49,15.49,0,0,0-7.75,3.35,16,16,0,0,0-5.47,8.68l0,.1-.16.62L66,95.89A17.23,17.23,0,0,0,59.47,88a16.62,16.62,0,0,0-8-2.66,17.78,17.78,0,0,0-5.71.52c-1.32.35-2,.65-2,.61a3,3,0,0,1,.5-.24,15.05,15.05,0,0,1,1.49-.53A17.12,17.12,0,0,1,51.49,85a16.79,16.79,0,0,1,8.19,2.64,17.49,17.49,0,0,1,6.73,8.08l-.4,0,0-.1a16.27,16.27,0,0,1,5.64-8.89,15.9,15.9,0,0,1,13.78-3,11,11,0,0,1,1.51.48A2.73,2.73,0,0,1,87.48,84.5Z" style="fill: rgb(38, 50, 56); transform-origin: 65.62px 89.8674px;" id="elu4fd0erok2q" class="animable"></path><path d="M145,53s-.41-.12-1.14-.27a9.19,9.19,0,0,0-3.15-.09,8.51,8.51,0,0,0-4.22,1.84,8.77,8.77,0,0,0-3,4.73v.05l-.16.62-.24-.58a9.43,9.43,0,0,0-3.56-4.32,9.3,9.3,0,0,0-4.36-1.47,9.85,9.85,0,0,0-3.13.26c-.72.18-1.11.33-1.13.3a1.41,1.41,0,0,1,.27-.15,5.16,5.16,0,0,1,.82-.31,9,9,0,0,1,3.19-.39,9.23,9.23,0,0,1,4.55,1.44,9.71,9.71,0,0,1,3.74,4.48l-.4,0v0a9,9,0,0,1,3.14-4.94,8.78,8.78,0,0,1,7.64-1.61,6.74,6.74,0,0,1,.84.28Q145,52.92,145,53Z" style="fill: rgb(38, 50, 56); transform-origin: 132.955px 56.0952px;" id="elshquajhku1" class="animable"></path><path d="M107.39,40s-.39.45-1.11,1.25a28.3,28.3,0,0,0-2.7,3.65,26.66,26.66,0,0,0-4,14.18v.18l-.41,0a23.43,23.43,0,0,0-2.59-7.68,24.26,24.26,0,0,0-7.37-8.23c-.88-.61-1.38-.91-1.36-.94s.14.05.38.18.62.32,1.07.62a22.3,22.3,0,0,1,3.54,2.83,23.53,23.53,0,0,1,4.07,5.36,23,23,0,0,1,2.67,7.8l-.41,0v-.18a26.16,26.16,0,0,1,4.17-14.35,24.94,24.94,0,0,1,2.83-3.6c.37-.39.69-.66.89-.86A1.84,1.84,0,0,1,107.39,40Z" style="fill: rgb(38, 50, 56); transform-origin: 97.6197px 49.63px;" id="elanz8527hda" class="animable"></path></g><g id="freepik--Threes--inject-56" class="animable" style="transform-origin: 275.955px 415.75px;"><polygon points="412.11 443.26 428.9 393.83 449.79 439.97 440.9 437.35 456.41 469.09 447.55 466.14 458.25 478.27 410.27 478.27 414.33 467.62 410.27 473.15 419.14 439.67 412.11 443.26" style="fill: rgb(69, 90, 100); transform-origin: 434.26px 436.05px;" id="elzz91syuco2a" class="animable"></polygon><polygon points="454.25 456.67 461.01 428.36 471.61 454.66 468.5 453.75 476.18 469.46 471.79 468 477.09 478.23 453.34 478.23 455.35 468.73 453.34 471.47 457.74 454.9 454.25 456.67" style="fill: rgb(69, 90, 100); transform-origin: 465.215px 453.295px;" id="el633d6gslo5m" class="animable"></polygon><polygon points="153.46 427.59 165.75 376.08 185.03 423.94 179.38 422.27 193.34 450.86 185.36 448.2 195 459.12 151.8 459.12 155.45 449.53 151.8 454.51 159.79 424.36 153.46 427.59" style="fill: rgb(69, 90, 100); transform-origin: 173.4px 417.6px;" id="el1w7gvcty1ro" class="animable"></polygon><polygon points="112.04 424.2 128.98 353.23 155.53 419.17 147.75 416.88 166.98 456.25 155.99 452.59 169.27 478.23 109.75 478.23 114.78 454.42 109.75 461.29 120.76 419.75 112.04 424.2" style="fill: rgb(69, 90, 100); transform-origin: 139.51px 415.73px;" id="elronelxdmx6m" class="animable"></polygon><polygon points="188.73 432.38 195.49 404.06 206.09 430.37 202.98 429.45 210.65 445.17 206.27 443.7 211.57 453.93 187.82 453.93 189.83 444.43 187.82 447.18 192.21 430.6 188.73 432.38" style="fill: rgb(69, 90, 100); transform-origin: 199.695px 428.995px;" id="el7upy25f51w4" class="animable"></polygon><polygon points="76.6 435.77 89.8 380.49 110.48 431.85 104.42 430.07 119.4 460.74 110.84 457.89 121.18 477.86 74.82 477.86 78.74 459.31 74.82 464.66 83.39 432.31 76.6 435.77" style="fill: rgb(69, 90, 100); transform-origin: 98px 429.175px;" id="el7nyp4zhk93x" class="animable"></polygon></g><g id="freepik--Dragon--inject-56" class="animable" style="transform-origin: 231.195px 251.601px;"><path d="M291,291c.07,0,0,.35-.19.83a9.83,9.83,0,0,0-.53,1.86,3.75,3.75,0,0,0,.16,1.84c.17.45.37.7.31.76s-.36-.12-.64-.6a3.25,3.25,0,0,1-.35-2.08,5.9,5.9,0,0,1,.71-1.94C290.7,291.2,290.91,291,291,291Z" style="fill: rgb(38, 50, 56); transform-origin: 290.372px 293.651px;" id="elphhl9d3634" class="animable"></path><path d="M290.28,378.94c-1.37,3.32-7.5,7.87-8.26,7.89,0,0-.64-5.2-1.07-7.71a1.28,1.28,0,0,1,.4-1.21,3.08,3.08,0,0,1,1.95-.44,19.22,19.22,0,0,1,7,1.47" style="fill: #7E57C2; transform-origin: 285.612px 382.141px;" id="el295bqc91lay" class="animable"></path><g id="el1emlxvzk8bg"><g style="opacity: 0.3; transform-origin: 285.612px 382.141px;" class="animable" id="eln9zpz5j815k"><path d="M290.28,378.94c-1.37,3.32-7.5,7.87-8.26,7.89,0,0-.64-5.2-1.07-7.71a1.28,1.28,0,0,1,.4-1.21,3.08,3.08,0,0,1,1.95-.44,19.22,19.22,0,0,1,7,1.47" id="el1ad56rwd7tn" class="animable" style="transform-origin: 285.612px 382.141px;"></path></g></g><path d="M280.6,377c-1.37,3.32-7.5,7.87-8.26,7.88,0,0-.64-5.19-1.07-7.7a1.31,1.31,0,0,1,.4-1.22,3.13,3.13,0,0,1,1.95-.43,19.22,19.22,0,0,1,7,1.47" style="fill: #7E57C2; transform-origin: 275.933px 380.196px;" id="elq6vzzppcu5e" class="animable"></path><g id="el290c52vkiwt"><g style="opacity: 0.3; transform-origin: 275.933px 380.196px;" class="animable" id="elklv9bku2j2"><path d="M280.6,377c-1.37,3.32-7.5,7.87-8.26,7.88,0,0-.64-5.19-1.07-7.7a1.31,1.31,0,0,1,.4-1.22,3.13,3.13,0,0,1,1.95-.43,19.22,19.22,0,0,1,7,1.47" id="el91lbwsn4hbj" class="animable" style="transform-origin: 275.933px 380.196px;"></path></g></g><path d="M270.92,375c-1.37,3.32-7.5,7.87-8.27,7.88,0,0-.63-5.19-1.06-7.7A1.31,1.31,0,0,1,262,374a3.13,3.13,0,0,1,1.95-.43,19,19,0,0,1,7,1.47" style="fill: #7E57C2; transform-origin: 266.261px 378.216px;" id="elk6q38ys9of" class="animable"></path><g id="el4quy4wumsse"><g style="opacity: 0.3; transform-origin: 266.261px 378.216px;" class="animable" id="eloz8ly5f6v8"><path d="M270.92,375c-1.37,3.32-7.5,7.87-8.27,7.88,0,0-.63-5.19-1.06-7.7A1.31,1.31,0,0,1,262,374a3.13,3.13,0,0,1,1.95-.43,19,19,0,0,1,7,1.47" id="el7pb02bsb2yq" class="animable" style="transform-origin: 266.261px 378.216px;"></path></g></g><path d="M262.64,372.42c-1.91,3-8.71,6.49-9.47,6.38,0,0,.25-5.23.25-7.77a1.28,1.28,0,0,1,.6-1.14,3.1,3.1,0,0,1,2-.1,19.19,19.19,0,0,1,6.63,2.63" style="fill: #7E57C2; transform-origin: 257.91px 374.236px;" id="elwwgg5iwcgq" class="animable"></path><g id="el61eeddqr27i"><g style="opacity: 0.3; transform-origin: 257.91px 374.236px;" class="animable" id="el93x97oruehc"><path d="M262.64,372.42c-1.91,3-8.71,6.49-9.47,6.38,0,0,.25-5.23.25-7.77a1.28,1.28,0,0,1,.6-1.14,3.1,3.1,0,0,1,2-.1,19.19,19.19,0,0,1,6.63,2.63" id="elmvykhdapct" class="animable" style="transform-origin: 257.91px 374.236px;"></path></g></g><path d="M255.46,368.85c-2.66,2.42-10.14,3.92-10.84,3.61,0,0,1.64-5,2.32-7.42a1.29,1.29,0,0,1,.89-.93,3.09,3.09,0,0,1,1.95.44,19.14,19.14,0,0,1,5.68,4.3" style="fill: #7E57C2; transform-origin: 250.04px 368.296px;" id="elzx922q746i" class="animable"></path><g id="el7e1z6k6qnin"><g style="opacity: 0.3; transform-origin: 250.04px 368.296px;" class="animable" id="elyqbb84kkt5m"><path d="M255.46,368.85c-2.66,2.42-10.14,3.92-10.84,3.61,0,0,1.64-5,2.32-7.42a1.29,1.29,0,0,1,.89-.93,3.09,3.09,0,0,1,1.95.44,19.14,19.14,0,0,1,5.68,4.3" id="el0wq6zzc16bf" class="animable" style="transform-origin: 250.04px 368.296px;"></path></g></g><path d="M249,363.58c-2.66,2.42-10.14,3.92-10.84,3.61,0,0,1.64-5,2.33-7.42a1.28,1.28,0,0,1,.88-.93,3.09,3.09,0,0,1,2,.44,19.18,19.18,0,0,1,5.68,4.3" style="fill: #7E57C2; transform-origin: 243.605px 363.024px;" id="eluoprkqrs9wm" class="animable"></path><g id="elsst65bsdvxd"><g style="opacity: 0.3; transform-origin: 243.605px 363.024px;" class="animable" id="elbrvss4y5fea"><path d="M249,363.58c-2.66,2.42-10.14,3.92-10.84,3.61,0,0,1.64-5,2.33-7.42a1.28,1.28,0,0,1,.88-.93,3.09,3.09,0,0,1,2,.44,19.18,19.18,0,0,1,5.68,4.3" id="elgo5q57spek9" class="animable" style="transform-origin: 243.605px 363.024px;"></path></g></g><path d="M307.72,357.22c-8.34,10.21-29.19,8.19-38.86,5.58s-17.72-7.72-27.39-10.7c-1.35-.41-2.94-.76-4.05.1-1.85,1.41-.78,4.53.87,6.16,12.79,12.62,31.11,22.53,55.94,21.17l13.63-22.3Z" style="fill: #7E57C2; transform-origin: 272.154px 365.662px;" id="elb5ihp16odj" class="animable"></path><g id="elv5bl8vwfs9l"><g style="opacity: 0.3; transform-origin: 275.005px 361.011px;" class="animable" id="elolel8bjgx"><path d="M307.72,357.22c-8.36,10.17-29.19,8.17-38.85,5.57s-17.35-7.48-26.72-10.48c15.08,14,37.76,18.66,58.26,17.12l7.45-12.2Z" id="elsx3kvnkl67f" class="animable" style="transform-origin: 275.005px 361.011px;"></path></g></g><g id="elzpgue6wrgfb"><g style="opacity: 0.2; transform-origin: 281.135px 371.385px;" class="animable" id="elkwtcozuf5uo"><path d="M278.57,370.52a36.25,36.25,0,0,0,2.73,2.68c.08-.12,2.4-1.07,2.4-1.07l-.8-2.56Z" id="elzq8hx4zh8lf" class="animable" style="transform-origin: 281.135px 371.385px;"></path></g></g><g id="elrgikaieaij"><g style="opacity: 0.2; transform-origin: 281.76px 376.59px;" class="animable" id="el5ll5376cje8"><path d="M280.2,374.18c-.15.16-1.2,2.35-1.2,2.35s3.32,2.48,3.28,2.47,2.2-2.78,2.24-2.86a10.22,10.22,0,0,0-1.08-1.25Z" id="el17bd5omeri9" class="animable" style="transform-origin: 281.76px 376.59px;"></path></g></g><g id="elb7g9fup43sg"><g style="opacity: 0.2; transform-origin: 287.14px 374.16px;" class="animable" id="elv3ktt0gcxgd"><polygon points="284.11 374.03 286.92 371.97 289.08 372.63 290.17 374.89 287.18 376.35 284.11 374.03" id="el9x9etjd43dl" class="animable" style="transform-origin: 287.14px 374.16px;"></polygon></g></g><path d="M251.32,360a9.79,9.79,0,0,1-2,2.81,9.56,9.56,0,0,1-2.53,2.33,38.28,38.28,0,0,1,4.49-5.14Z" style="fill: rgb(38, 50, 56); transform-origin: 249.055px 362.57px;" id="el4356i095vv3" class="animable"></path><path d="M262.46,365.23a11.75,11.75,0,0,1-6,6.1c-.08-.14,1.55-1.17,3.19-2.85S262.33,365.16,262.46,365.23Z" style="fill: rgb(38, 50, 56); transform-origin: 259.459px 368.279px;" id="elppvmro4fh49" class="animable"></path><path d="M275.13,367.81a9,9,0,0,1-.81,4.87,8.85,8.85,0,0,1-2.89,4,34,34,0,0,0,2.41-4.21A36.71,36.71,0,0,0,275.13,367.81Z" style="fill: rgb(38, 50, 56); transform-origin: 273.309px 372.245px;" id="elhqb4sv8lw28" class="animable"></path><path d="M292.9,370.75a9.68,9.68,0,0,1-1,4.44,9.54,9.54,0,0,1-2.57,3.75c-.12-.09,1.11-1.7,2.1-4S292.75,370.73,292.9,370.75Z" style="fill: rgb(38, 50, 56); transform-origin: 291.112px 374.845px;" id="elymwmac05kw" class="animable"></path><path d="M184.42,231.3l-22.88-52.06L139,166.53s-15.5,8.8-27.39,6-29,.91-36.49,2.67-61.2,87-54.73,104.44c0,0,46.87-72.7,78.51-48.52l8.7,9.75a54.74,54.74,0,0,1,17-9.42,7.93,7.93,0,0,1,1.6-5.62c1.57-1.89,4.57-2.66,6.6-1.28a5.66,5.66,0,0,1,2.19,3.63,10.52,10.52,0,0,1,.16,1.24,30.75,30.75,0,0,1,16,3.56s8.48-2.69,23.08,7.6,33.65,33,33.65,33l8.3-14.71ZM98.27,224c2-9.11,8.87-16.6,18.09-18.06C112.93,213.57,105.69,220,98.27,224Zm12-22.33a9.78,9.78,0,0,1,7.78-7.77A17.56,17.56,0,0,1,110.22,201.63Zm27.37,19.51a2.07,2.07,0,0,1-1.8-3.67h.34a2.06,2.06,0,0,1,2.75,1A2.1,2.1,0,0,1,137.59,221.14Z" style="fill: #7E57C2; transform-origin: 118.015px 223.085px;" id="elpm6f0tpmh2d" class="animable"></path><g id="elmh2k0lt116q"><g style="opacity: 0.3; transform-origin: 118.015px 223.085px;" class="animable" id="elpd6madhfff"><path d="M184.42,231.3l-22.88-52.06L139,166.53s-15.5,8.8-27.39,6-29,.91-36.49,2.67-61.2,87-54.73,104.44c0,0,46.87-72.7,78.51-48.52l8.7,9.75a54.74,54.74,0,0,1,17-9.42,7.93,7.93,0,0,1,1.6-5.62c1.57-1.89,4.57-2.66,6.6-1.28a5.66,5.66,0,0,1,2.19,3.63,10.52,10.52,0,0,1,.16,1.24,30.75,30.75,0,0,1,16,3.56s8.48-2.69,23.08,7.6,33.65,33,33.65,33l8.3-14.71ZM98.27,224c2-9.11,8.87-16.6,18.09-18.06C112.93,213.57,105.69,220,98.27,224Zm12-22.33a9.78,9.78,0,0,1,7.78-7.77A17.56,17.56,0,0,1,110.22,201.63Zm27.37,19.51a2.07,2.07,0,0,1-1.8-3.67h.34a2.06,2.06,0,0,1,2.75,1A2.1,2.1,0,0,1,137.59,221.14Z" id="elw2n1xj819y7" class="animable" style="transform-origin: 118.015px 223.085px;"></path></g></g><path d="M213.27,262.66s-23.31-17.4-29.26-24-22.43-51.44-23.77-53.2-3.83-5.66-5.49-6.85-16.91-11-16.91-11-8-3.53-12.84,1c0,0,.89-7.5,13.67-5.29s30.22,14.53,30.22,14.53-2.94,9.36,3.83,20.44,9.27,23.24,15,29,39.5,23.53,39.5,23.53Z" style="fill: #7E57C2; transform-origin: 176.11px 212.786px;" id="elbj4sfzy7n5a" class="animable"></path><path d="M108.25,239.45a7.72,7.72,0,0,1,.37-.76l1.15-2.15c1-1.85,2.48-4.53,4.33-7.82,3.7-6.57,8.88-15.63,15.31-25.21a184.15,184.15,0,0,1,18.18-23.23,7.82,7.82,0,0,1,4.46-2.48,7,7,0,0,1,3.8.66,5.39,5.39,0,0,1,2,1.48,2.75,2.75,0,0,1,.43.74,5.34,5.34,0,0,0-2.46-2,6.88,6.88,0,0,0-3.68-.55,7.54,7.54,0,0,0-4.24,2.45,198.62,198.62,0,0,0-18,23.26c-6.41,9.56-11.64,18.58-15.43,25.1-1.86,3.24-3.38,5.87-4.46,7.74l-1.24,2.1A4.29,4.29,0,0,1,108.25,239.45Z" style="fill: #7E57C2; transform-origin: 133.265px 208.605px;" id="elfe1t8qalovm" class="animable"></path><path d="M20.41,279.68s0-.15.15-.44.28-.74.5-1.29c.45-1.13,1.07-2.81,2-4.93a156.23,156.23,0,0,1,9-17.34,196.42,196.42,0,0,1,16.85-23.56c3.5-4.18,7.3-8.47,11.4-12.76s8.51-8.58,13.15-12.84a160.51,160.51,0,0,1,14.19-11.69,108.52,108.52,0,0,1,14.6-8.94,106.58,106.58,0,0,1,27.4-9.31,83.64,83.64,0,0,1,11.06-1.32,71.12,71.12,0,0,1,8.41.08c2.3.17,4.08.37,5.28.57l1.37.22.46.1-.47,0-1.37-.17c-1.2-.17-3-.34-5.28-.48a75.29,75.29,0,0,0-8.38,0,85.52,85.52,0,0,0-11,1.39,104.78,104.78,0,0,0-41.77,18.3A164.64,164.64,0,0,0,73.79,206.9c-4.63,4.26-9,8.54-13.13,12.81s-7.9,8.55-11.4,12.72a200.56,200.56,0,0,0-16.91,23.44,164.28,164.28,0,0,0-9.12,17.23c-.94,2.11-1.59,3.78-2.08,4.89l-.54,1.27Z" style="fill: #7E57C2; transform-origin: 88.32px 227.426px;" id="el7slskpg7uym" class="animable"></path><path d="M151.11,233a3.07,3.07,0,0,1-.21-.54c-.14-.42-.32-.94-.53-1.58-.47-1.37-1-3.4-1.63-5.91a72.22,72.22,0,0,1-1.48-9,59.32,59.32,0,0,1-.17-11.14,57.24,57.24,0,0,1,1.93-11c.23-.83.52-1.62.76-2.39l.38-1.14c.14-.37.29-.73.43-1.08.28-.71.55-1.39.82-2.05l.87-1.84c.54-1.18,1.13-2.19,1.64-3.09l.71-1.24.66-1,.93-1.38a2.21,2.21,0,0,1,.36-.46,2.94,2.94,0,0,1-.27.52l-.85,1.43-.62,1c-.21.39-.43.82-.67,1.26-.48.91-1,1.92-1.55,3.11l-.84,1.84-.79,2c-.14.35-.27.71-.41,1.08l-.36,1.13c-.24.77-.51,1.56-.74,2.38a58.94,58.94,0,0,0-1.87,10.88,62.12,62.12,0,0,0,.12,11.05,80,80,0,0,0,1.37,8.94c.56,2.51,1.05,4.54,1.46,5.93.18.65.32,1.18.44,1.6A2.21,2.21,0,0,1,151.11,233Z" style="fill: #7E57C2; transform-origin: 151.743px 205.58px;" id="el8ogc04ftkgr" class="animable"></path><path d="M253.93,228.43c-.09-5.17,3-14.74,3.59-15.21,0,0,2.24,6.44,3.41,9.49a3.13,3.13,0,0,1,.11,1.84,3.38,3.38,0,0,1-1.33,1.71,10.5,10.5,0,0,1-5.78,2.17" style="fill: #7E57C2; transform-origin: 257.529px 220.825px;" id="elmaq935zkh2n" class="animable"></path><g id="el5ss5w2n5syp"><g style="opacity: 0.3; transform-origin: 257.529px 220.825px;" class="animable" id="elgd95f4jidak"><path d="M253.93,228.43c-.09-5.17,3-14.74,3.59-15.21,0,0,2.24,6.44,3.41,9.49a3.13,3.13,0,0,1,.11,1.84,3.38,3.38,0,0,1-1.33,1.71,10.5,10.5,0,0,1-5.78,2.17" id="elcdu9a9dedk" class="animable" style="transform-origin: 257.529px 220.825px;"></path></g></g><path d="M265.84,223.46c-1.54-4.94-1.27-15-.85-15.62,0,0,4,5.56,5.95,8.15a3.1,3.1,0,0,1,.63,1.73,3.35,3.35,0,0,1-.8,2,10.65,10.65,0,0,1-4.93,3.72" style="fill: #7E57C2; transform-origin: 268.117px 215.65px;" id="elylz8l6f0yn" class="animable"></path><g id="el3vet4fvifvg"><g style="opacity: 0.3; transform-origin: 268.117px 215.65px;" class="animable" id="elradttv0g63l"><path d="M265.84,223.46c-1.54-4.94-1.27-15-.85-15.62,0,0,4,5.56,5.95,8.15a3.1,3.1,0,0,1,.63,1.73,3.35,3.35,0,0,1-.8,2,10.65,10.65,0,0,1-4.93,3.72" id="elj8hwisqxndl" class="animable" style="transform-origin: 268.117px 215.65px;"></path></g></g><path d="M274.58,214.83c-1.54-4.94-1.27-15-.85-15.61,0,0,4,5.55,5.95,8.15a3,3,0,0,1,.62,1.73,3.36,3.36,0,0,1-.79,2,10.61,10.61,0,0,1-4.93,3.71" style="fill: #7E57C2; transform-origin: 276.852px 207.025px;" id="elkkvgcupxuri" class="animable"></path><g id="elohnm2z5n7u"><g style="opacity: 0.3; transform-origin: 276.852px 207.025px;" class="animable" id="eluel6vl9qyr"><path d="M274.58,214.83c-1.54-4.94-1.27-15-.85-15.61,0,0,4,5.55,5.95,8.15a3,3,0,0,1,.62,1.73,3.36,3.36,0,0,1-.79,2,10.61,10.61,0,0,1-4.93,3.71" id="els9qzv5xnc89" class="animable" style="transform-origin: 276.852px 207.025px;"></path></g></g><path d="M283.31,206.21c-1.54-4.94-1.26-15-.85-15.62,0,0,4,5.56,6,8.15a3.11,3.11,0,0,1,.62,1.73,3.45,3.45,0,0,1-.79,2,10.59,10.59,0,0,1-4.94,3.71" style="fill: #7E57C2; transform-origin: 285.609px 198.4px;" id="elm7mbf8dwiyd" class="animable"></path><g id="elf4vtis6xper"><g style="opacity: 0.3; transform-origin: 285.609px 198.4px;" class="animable" id="elbphby5n78jt"><path d="M283.31,206.21c-1.54-4.94-1.26-15-.85-15.62,0,0,4,5.56,6,8.15a3.11,3.11,0,0,1,.62,1.73,3.45,3.45,0,0,1-.79,2,10.59,10.59,0,0,1-4.94,3.71" id="elws8w0wf6bx" class="animable" style="transform-origin: 285.609px 198.4px;"></path></g></g><path d="M292.05,197.58c-1.54-4.94-1.27-15-.85-15.61,0,0,4,5.56,5.95,8.15a3,3,0,0,1,.63,1.73,3.35,3.35,0,0,1-.8,2,10.51,10.51,0,0,1-4.93,3.71" style="fill: #7E57C2; transform-origin: 294.327px 189.775px;" id="elyn5ghkq6huc" class="animable"></path><g id="ellzam5s9hp6i"><g style="opacity: 0.3; transform-origin: 294.327px 189.775px;" class="animable" id="elk2gemzl5pqt"><path d="M292.05,197.58c-1.54-4.94-1.27-15-.85-15.61,0,0,4,5.56,5.95,8.15a3,3,0,0,1,.63,1.73,3.35,3.35,0,0,1-.8,2,10.51,10.51,0,0,1-4.93,3.71" id="elcyixkr5b7zb" class="animable" style="transform-origin: 294.327px 189.775px;"></path></g></g><path d="M226.37,244.54c-1.54-4.94-1.26-15-.85-15.62,0,0,4,5.56,6,8.15a3.09,3.09,0,0,1,.62,1.73,3.4,3.4,0,0,1-.79,2,10.61,10.61,0,0,1-4.94,3.72" style="fill: #7E57C2; transform-origin: 228.669px 236.73px;" id="elwsoya9a1vf" class="animable"></path><g id="ellq818glbe8r"><g style="opacity: 0.3; transform-origin: 228.669px 236.73px;" class="animable" id="elr4raz7tthwg"><path d="M226.37,244.54c-1.54-4.94-1.26-15-.85-15.62,0,0,4,5.56,6,8.15a3.09,3.09,0,0,1,.62,1.73,3.4,3.4,0,0,1-.79,2,10.61,10.61,0,0,1-4.94,3.72" id="elji7mmyf1ix8" class="animable" style="transform-origin: 228.669px 236.73px;"></path></g></g><path d="M220.21,256.26c-2.45-3.84-3.14-13.25-2.67-14,0,0,5.57,3.26,8.34,4.72a1.77,1.77,0,0,1,1,1.3,3.71,3.71,0,0,1-.79,2.24,20.35,20.35,0,0,1-5.85,5.76" style="fill: #7E57C2; transform-origin: 222.141px 249.27px;" id="el8iih9vcma0p" class="animable"></path><g id="elnxx4ijzmrp9"><g style="opacity: 0.3; transform-origin: 222.141px 249.27px;" class="animable" id="elhaty93n10g"><path d="M220.21,256.26c-2.45-3.84-3.14-13.25-2.67-14,0,0,5.57,3.26,8.34,4.72a1.77,1.77,0,0,1,1,1.3,3.71,3.71,0,0,1-.79,2.24,20.35,20.35,0,0,1-5.85,5.76" id="elk5vfndr62ib" class="animable" style="transform-origin: 222.141px 249.27px;"></path></g></g><path d="M213.75,264.84c-2.95-3.46-4.92-12.69-4.56-13.51,0,0,6,2.46,8.91,3.52a1.77,1.77,0,0,1,1.13,1.16,3.61,3.61,0,0,1-.48,2.33,20.28,20.28,0,0,1-5,6.5" style="fill: #7E57C2; transform-origin: 214.205px 258.085px;" id="elkro9n09qp6r" class="animable"></path><g id="elb18l4aqb1r"><g style="opacity: 0.3; transform-origin: 214.205px 258.085px;" class="animable" id="elo9vkdzzwl9"><path d="M213.75,264.84c-2.95-3.46-4.92-12.69-4.56-13.51,0,0,6,2.46,8.91,3.52a1.77,1.77,0,0,1,1.13,1.16,3.61,3.61,0,0,1-.48,2.33,20.28,20.28,0,0,1-5,6.5" id="el8u8ncw9kiyk" class="animable" style="transform-origin: 214.205px 258.085px;"></path></g></g><path d="M205.52,284.48c-3-3.46-4.92-12.69-4.57-13.51,0,0,6,2.46,8.91,3.52a1.78,1.78,0,0,1,1.14,1.16,3.67,3.67,0,0,1-.48,2.33,20.42,20.42,0,0,1-5,6.5" style="fill: #7E57C2; transform-origin: 205.969px 277.725px;" id="elqmoa2z04ee" class="animable"></path><g id="elfxpjzx1grsv"><g style="opacity: 0.3; transform-origin: 205.969px 277.725px;" class="animable" id="elxsfwc6iqxh"><path d="M205.52,284.48c-3-3.46-4.92-12.69-4.57-13.51,0,0,6,2.46,8.91,3.52a1.78,1.78,0,0,1,1.14,1.16,3.67,3.67,0,0,1-.48,2.33,20.42,20.42,0,0,1-5,6.5" id="elsa3v00byf9" class="animable" style="transform-origin: 205.969px 277.725px;"></path></g></g><path d="M254.7,226.91C238,231.4,224.2,243.59,214.63,258c-5.41,8.15-9.76,17.63-8.86,27.37a35.47,35.47,0,0,0,6.88,17.12A81.59,81.59,0,0,0,225.5,316l13.93-16.73s-17.3-7.22-12.21-20.5,29.57-14.16,29.57-14.16Z" style="fill: #7E57C2; transform-origin: 231.221px 271.455px;" id="elnphbyyr7ojh" class="animable"></path><path d="M247.45,265.83s5.66-.72,13,3c5,2.5,16,5.75,21.74,3.69,12.85-4.65,12.35-7.6,12.35-7.6l8-52.83V188.41s-9.48,6.36-23.67,20.78c-8.73,8.89-27.66,20-27.66,20Z" style="fill: #7E57C2; transform-origin: 274.995px 230.792px;" id="elh7dizb7tsgb" class="animable"></path><path d="M197.64,271.31c.56,5.21,3.85,9.7,7.26,13.7a138.29,138.29,0,0,0,18.19,17.78l4.06-7.37Z" style="fill: rgb(224, 224, 224); transform-origin: 212.395px 287.05px;" id="eli1fzkpozwdp" class="animable"></path><path d="M197.64,271.31a5.37,5.37,0,0,1,.56.43l1.67,1.33,6.24,5c5.32,4.27,12.81,10.29,21.21,17.14l.16.14-.1.19-2.78,5c-.44.8-.88,1.59-1.28,2.33l-.15.27-.24-.2a130.34,130.34,0,0,1-20.54-20.81,25,25,0,0,1-4.17-7.72,14.29,14.29,0,0,1-.51-2.34c0-.25,0-.45-.06-.63s0-.19,0-.18l.17.81a16.77,16.77,0,0,0,.6,2.28,26,26,0,0,0,4.26,7.57,138,138,0,0,0,20.58,20.62l-.39.08,1.28-2.33,2.79-5,.06.32c-8.28-6.77-15.55-12.81-20.82-17.2L200,273.24l-1.7-1.41Z" style="fill: rgb(38, 50, 56); transform-origin: 212.552px 287.199px;" id="ellmbtkz0nlgs" class="animable"></path><path d="M222.72,276.48c-4.52-3.11-10.24-6.15-14.83-6.69,8.58,7.46,19.61,17.24,26.38,28l4.31-5.28C235.2,286.16,228.68,280.58,222.72,276.48Z" style="fill: rgb(224, 224, 224); transform-origin: 223.235px 283.79px;" id="el00fgnbvlwyru" class="animable"></path><path d="M222.72,276.48a1.79,1.79,0,0,1,.37.21c.23.15.58.37,1,.68.89.61,2.17,1.53,3.74,2.78A54.71,54.71,0,0,1,233.2,285a34.4,34.4,0,0,1,5.59,7.46l.07.13-.1.12L234.47,298l-.22.27-.19-.29a81.57,81.57,0,0,0-7.66-10.07A204.79,204.79,0,0,0,207.76,270l-.5-.45.66.09a24,24,0,0,1,6.53,2A47.33,47.33,0,0,1,219,274c1.22.73,2.15,1.35,2.77,1.78l.69.51c.16.11.24.18.23.19s-.09,0-.26-.14l-.73-.46c-.64-.39-1.58-1-2.82-1.68a48.78,48.78,0,0,0-4.6-2.31,23.59,23.59,0,0,0-6.44-1.89l.16-.36a192.15,192.15,0,0,1,18.76,17.91,79.21,79.21,0,0,1,7.69,10.16l-.4,0,4.32-5.27,0,.25a34.89,34.89,0,0,0-5.46-7.41,56.36,56.36,0,0,0-5.24-4.89c-1.54-1.28-2.79-2.23-3.65-2.87l-1-.74A1.69,1.69,0,0,1,222.72,276.48Z" style="fill: rgb(38, 50, 56); transform-origin: 223.06px 283.91px;" id="eluhk1kwz2ous" class="animable"></path><path d="M240.48,293.87S247.71,301,251.71,304s5.69,6.16,5.38,7.69-2,4-1.38,5.39,4.15,7.38,7.84,8.77,5.85-.31,4.92,1.69-6.3,11.69-10.15,10l-1.69-1.7s-4.46,1.54-5.54.93-4.46-2.77-5.23-5.08-10.72-9.62-19.56-10.1-6.12-4.5-5.66-9.42a21.86,21.86,0,0,1,2.46-8.32s-1.85-9.23.15-10,6.15,1.69,6.15,1.69,3.69-.3,5.69.46c0,0,1.33-6.26,2.1-5.8A30,30,0,0,1,240.48,293.87Z" style="fill: #7E57C2; transform-origin: 244.286px 313.956px;" id="ellrgag2jubj" class="animable"></path><path d="M239.08,302.61c-.12.11-2.07-2.13-5-4.22s-5.71-3.22-5.64-3.37a5.84,5.84,0,0,1,1.85.61,24,24,0,0,1,4.09,2.33,23.64,23.64,0,0,1,3.55,3.1A5.85,5.85,0,0,1,239.08,302.61Z" style="fill: rgb(38, 50, 56); transform-origin: 233.759px 298.817px;" id="elqrj9mgm86rn" class="animable"></path><g id="eljkdwcwh5nc"><g style="opacity: 0.3; transform-origin: 242.13px 315.069px;" class="animable" id="elulhrl6mqkki"><path d="M238,315.31c-.49-.64-1-1.44-.53-2.09a2.83,2.83,0,0,1,2.11-.76,19.43,19.43,0,0,1,4.57.24,6.11,6.11,0,0,1,1.72.5,2,2,0,0,1,1.09,1.14,2,2,0,0,1-.76,1.83,13.54,13.54,0,0,0-1.57,1.55,7.19,7.19,0,0,0-.44-2,2.75,2.75,0,0,0-1.3-1.6,3.65,3.65,0,0,0-2.6-.36,4.28,4.28,0,0,0-2.17,1.34" id="elzai2agnzif" class="animable" style="transform-origin: 242.13px 315.069px;"></path></g></g><path d="M238,314.69a4.51,4.51,0,0,1,1.55-1.58,3.54,3.54,0,0,1,2.67-.23,3.11,3.11,0,0,1,1.8,1.87,9.35,9.35,0,0,1,.5,2.63c0,.31,0,.69-.23.87a.88.88,0,0,1-.6.1,7,7,0,0,1-5.69-3.66" style="fill: rgb(255, 255, 255); transform-origin: 241.26px 315.543px;" id="elpf64a7xp1ra" class="animable"></path><path d="M238,314.69a10.26,10.26,0,0,0,1.87,2,7.53,7.53,0,0,0,2.64,1.23,6.78,6.78,0,0,0,.83.16,2,2,0,0,0,.76,0c.29-.08.12-.92.07-1.52a4.36,4.36,0,0,0-1.38-3.1,3.14,3.14,0,0,0-2.69-.38,3.5,3.5,0,0,0-1.58,1.08c-.31.35-.49.56-.52.54s.09-.26.36-.67a3.38,3.38,0,0,1,1.63-1.3,3.62,3.62,0,0,1,1.46-.2,2.85,2.85,0,0,1,1.62.55,4.71,4.71,0,0,1,1.62,3.42l.09,1a1.58,1.58,0,0,1,0,.56.78.78,0,0,1-.43.51,2.13,2.13,0,0,1-1,0,7.88,7.88,0,0,1-.87-.19,7.47,7.47,0,0,1-2.75-1.39,5.82,5.82,0,0,1-1.35-1.57A1.67,1.67,0,0,1,238,314.69Z" style="fill: rgb(38, 50, 56); transform-origin: 241.4px 315.575px;" id="elbqsn19yrroa" class="animable"></path><g id="elf3on10vjx1q"><g style="opacity: 0.3; transform-origin: 259.133px 330.406px;" class="animable" id="elcw7w92k6nf"><path d="M258.83,327.75c-.89,1.28-.51,3.71.13,5.11,0,.09.1.19.2.21s.25-.16.3-.31a8.4,8.4,0,0,0,.5-2.65C259.94,329.2,259.71,327.61,258.83,327.75Z" id="eldqclh3mlm7u" class="animable" style="transform-origin: 259.133px 330.406px;"></path></g></g><path d="M238.7,322.21,250.55,330c1,.65,2,1.3,3,1.89a10,10,0,0,1,2.26,1.52,2.69,2.69,0,0,1,.84,2.46" style="fill: #7E57C2; transform-origin: 247.696px 329.04px;" id="elmwtu08zqkf" class="animable"></path><path d="M256.66,335.84a5.09,5.09,0,0,0-.08-.88,3.34,3.34,0,0,0-1.38-1.88c-1.73-1.05-4.32-2.52-6.95-4.3s-5.09-3.37-6.81-4.56a21.11,21.11,0,0,1-2.74-2,22.27,22.27,0,0,1,2.94,1.71c1.78,1.11,4.22,2.67,6.89,4.42s5.1,3.25,6.9,4.45a3.42,3.42,0,0,1,1.35,2.13C256.86,335.54,256.68,335.86,256.66,335.84Z" style="fill: rgb(38, 50, 56); transform-origin: 247.75px 329.03px;" id="elj7uorchmwi" class="animable"></path><path d="M252.44,308.91c1.84,1.84,2.83,4.89,3.13,7.48" style="fill: #7E57C2; transform-origin: 254.005px 312.65px;" id="elforll8mikqc" class="animable"></path><path d="M255.57,316.39c-.16,0-.41-1.81-1.22-3.9a25.08,25.08,0,0,0-1.91-3.58c.05-.05.44.22.93.81a9.24,9.24,0,0,1,1.46,2.58A8.4,8.4,0,0,1,255.57,316.39Z" style="fill: rgb(38, 50, 56); transform-origin: 254.016px 312.647px;" id="elwl3fqwpkwaj" class="animable"></path><path d="M234.92,295.87a20.52,20.52,0,0,1,6.46,3.94" style="fill: #7E57C2; transform-origin: 238.15px 297.84px;" id="eliev2xncwv1" class="animable"></path><path d="M241.38,299.81c-.1.11-1.41-1-3.18-2.05s-3.33-1.75-3.28-1.89a8.51,8.51,0,0,1,3.55,1.45A8.31,8.31,0,0,1,241.38,299.81Z" style="fill: rgb(38, 50, 56); transform-origin: 238.149px 297.844px;" id="eljp4h4nprjkb" class="animable"></path><path d="M223.94,307.37a17.61,17.61,0,0,1-11.33,1.82,4.6,4.6,0,0,1-1.08,7.8,10.35,10.35,0,0,1,5.38,2.31,6.49,6.49,0,0,1,2.31,5.24,18.77,18.77,0,0,1,12.56-2.09" style="fill: #7E57C2; transform-origin: 221.655px 315.955px;" id="elvoq452jp74l" class="animable"></path><path d="M228.05,306.54c-2.84-2.84-6.94-4.13-11-4.34a49.84,49.84,0,0,0-11.95,1.34,31.17,31.17,0,0,0,23,5.26" style="fill: #7E57C2; transform-origin: 216.6px 305.706px;" id="eltrcdo4t4ytp" class="animable"></path><path d="M228.12,308.8a2.14,2.14,0,0,1-.48.12c-.31.05-.78.16-1.39.23a28.19,28.19,0,0,1-5.18.17,30.9,30.9,0,0,1-16-5.55l0,0-.51-.34.61-.13a62.29,62.29,0,0,1,9.32-1.32,22,22,0,0,1,7.64.91,14.73,14.73,0,0,1,4.61,2.36,8.79,8.79,0,0,1,1.06.94,2,2,0,0,1,.32.37s-.51-.45-1.5-1.15a15.83,15.83,0,0,0-4.6-2.17,22.22,22.22,0,0,0-7.51-.78,63.93,63.93,0,0,0-9.24,1.36l.1-.47,0,0A31.7,31.7,0,0,0,221.09,309a32.81,32.81,0,0,0,5.14,0A15.17,15.17,0,0,1,228.12,308.8Z" style="fill: rgb(38, 50, 56); transform-origin: 216.34px 305.657px;" id="el3yhkprksz6p" class="animable"></path><g id="elwekz258wdd"><g style="opacity: 0.3; transform-origin: 244.474px 310.546px;" class="animable" id="el4z8livpm8t"><path d="M249.27,312.19a2.33,2.33,0,0,0-.7-1.92,5.46,5.46,0,0,0-1.79-1.12,22.16,22.16,0,0,0-4.52-1.41,2.49,2.49,0,0,0-1.62.06,1.73,1.73,0,0,0-.84,1.1,5.19,5.19,0,0,0-.13,1.42c.14.62,3,1.33,4.44,1.85l3,1.12a2.14,2.14,0,0,0,.66.17A1.49,1.49,0,0,0,249.27,312.19Z" id="elvzsbmax1yi8" class="animable" style="transform-origin: 244.474px 310.546px;"></path></g></g><ellipse cx="241.83" cy="315.43" rx="0.64" ry="2.36" style="fill: #7E57C2; transform-origin: 241.83px 315.43px;" id="elpi50t3zpm7c" class="animable"></ellipse><path d="M241.91,317.71a5.36,5.36,0,0,1-.34-2.27,5.45,5.45,0,0,1,.18-2.3,5.13,5.13,0,0,1,.34,2.28A5,5,0,0,1,241.91,317.71Z" style="fill: rgb(38, 50, 56); transform-origin: 241.834px 315.425px;" id="el3gd7g9gze4j" class="animable"></path><g id="elqke87bnyupb"><g style="opacity: 0.3; transform-origin: 236.077px 308.437px;" class="animable" id="els2ojw48tf9n"><path d="M235,309.93a1.47,1.47,0,0,0,1.81.17,4.32,4.32,0,0,0,1.32-1.43,1.32,1.32,0,0,0,.29-.73,1.14,1.14,0,0,0-.66-.85,3.41,3.41,0,0,0-2.32-.52,2.08,2.08,0,0,0-1.68,1.54,1.49,1.49,0,0,0,1.24,1.75" id="eltbbc9vwayj" class="animable" style="transform-origin: 236.077px 308.437px;"></path></g></g><g id="elp4fq7q91vk"><g style="opacity: 0.3; transform-origin: 240.038px 306.265px;" class="animable" id="elr2fa67sab2i"><path d="M240.25,305.29l-1.19.63a.63.63,0,0,0-.35.31.42.42,0,0,0,.15.43,1.19,1.19,0,0,0,.44.21c.43.13.88.25,1.32.34a.72.72,0,0,0,.41,0,.59.59,0,0,0,.33-.48,1.18,1.18,0,0,0-.24-.94,1.13,1.13,0,0,0-.86-.45" id="elen7v9bjnaru" class="animable" style="transform-origin: 240.038px 306.265px;"></path></g></g><path d="M258.47,328.06a4.79,4.79,0,0,0,.21,3.55c.13.34.29.69.45,1.05,0,.1.08.18.09.17s-.16,0-.1,0a2.58,2.58,0,0,0,.22-.49,7.2,7.2,0,0,0,.28-2.28,3.63,3.63,0,0,0-.27-1.81,1.41,1.41,0,0,0-.9-.72c-.28-.07-.45,0-.46,0s.14-.16.49-.15a1.58,1.58,0,0,1,1.19.73,3.77,3.77,0,0,1,.43,2,7,7,0,0,1-.27,2.46,2.39,2.39,0,0,1-.32.64.41.41,0,0,1-.27.17.42.42,0,0,1-.36-.1,1,1,0,0,1-.22-.35c-.16-.37-.31-.73-.43-1.09a5.87,5.87,0,0,1-.37-2C257.89,328.6,258.43,328,258.47,328.06Z" style="fill: rgb(38, 50, 56); transform-origin: 258.988px 330.384px;" id="el02qyse6qh0io" class="animable"></path><path d="M257.74,326.89a6.63,6.63,0,0,1-2-.82,18.85,18.85,0,0,1-7.43-7.28,6.79,6.79,0,0,1-.86-2,25.77,25.77,0,0,0,10.3,10.09Z" style="fill: rgb(38, 50, 56); transform-origin: 252.6px 321.84px;" id="elrkt95nvz48a" class="animable"></path><path d="M257.17,319.47c0,.16-1.55.1-3.3.7s-2.94,1.56-3,1.44a6.62,6.62,0,0,1,6.34-2.14Z" style="fill: rgb(38, 50, 56); transform-origin: 254.04px 320.476px;" id="eloye0oyomco" class="animable"></path><path d="M259.35,323.48c0,.16-.89.31-1.82.88s-1.49,1.3-1.62,1.22.28-1,1.35-1.66A2.44,2.44,0,0,1,259.35,323.48Z" style="fill: rgb(38, 50, 56); transform-origin: 257.618px 324.496px;" id="eleg4k3kqurcm" class="animable"></path><path d="M217.33,312.37c0-.15,2.51.25,5.58.15s5.53-.63,5.57-.48a14.94,14.94,0,0,1-5.55,1A14.67,14.67,0,0,1,217.33,312.37Z" style="fill: rgb(38, 50, 56); transform-origin: 222.905px 312.547px;" id="elnzxax6p4lk" class="animable"></path><path d="M220.48,318a16.22,16.22,0,0,1,4-2.24,16.59,16.59,0,0,1,4.32-1.54,27.75,27.75,0,0,1-4.1,2A26.9,26.9,0,0,1,220.48,318Z" style="fill: rgb(38, 50, 56); transform-origin: 224.64px 316.11px;" id="ell05okf0g4cs" class="animable"></path><path d="M232.72,319.82c0,.16-3,.58-6.57,1.84s-6.18,2.83-6.26,2.69a6.23,6.23,0,0,1,1.66-1.16,26.67,26.67,0,0,1,4.43-2,25.68,25.68,0,0,1,4.72-1.2A6.85,6.85,0,0,1,232.72,319.82Z" style="fill: rgb(38, 50, 56); transform-origin: 226.305px 322.082px;" id="el5jetpdu24rr" class="animable"></path><g id="elb0pyhubluea"><g style="opacity: 0.3; transform-origin: 217.855px 305.785px;" class="animable" id="eli84webeag9r"><path d="M223.38,305.26a15.4,15.4,0,0,0-6.61-1.23,46.2,46.2,0,0,0-6.73.75c1.41.47,2.83.93,4.26,1.36a32.48,32.48,0,0,0,5.6,1.29,12.73,12.73,0,0,0,5.69-.51l.08-.16A8.47,8.47,0,0,0,223.38,305.26Z" id="el31eb08lq4j2" class="animable" style="transform-origin: 217.855px 305.785px;"></path></g></g><g id="eluqntjfoflus"><g style="opacity: 0.3; transform-origin: 255.554px 309.783px;" class="animable" id="el31vdgur0ypq"><path d="M254.26,306.53a2.08,2.08,0,0,0,.06,2c.54,1.41,1.08,2.82,1.61,4.23,0,.11.11.24.23.27s.2-.06.28-.14a2.6,2.6,0,0,0,.57-2.28,5.13,5.13,0,0,0-1.08-2.16c-.51-.64-1.09-1.21-1.62-1.83" id="elqsox08jpvnd" class="animable" style="transform-origin: 255.554px 309.783px;"></path></g></g><path d="M219.06,289.1a20.32,20.32,0,0,0-2.46,3.15,19.23,19.23,0,0,0-1.34,3.78,7.28,7.28,0,0,1,3.8-6.93Z" style="fill: rgb(38, 50, 56); transform-origin: 217.151px 292.565px;" id="elti0oiwsp4lj" class="animable"></path><path d="M212.6,283.8c.08.13-1.2.95-2.34,2.4s-1.66,2.86-1.81,2.81a6.92,6.92,0,0,1,4.15-5.21Z" style="fill: rgb(38, 50, 56); transform-origin: 210.527px 286.406px;" id="elj9n1oyqjmnk" class="animable"></path><path d="M206.25,278.23c.08.13-1,.87-1.84,2.14s-1.25,2.49-1.4,2.45a4.16,4.16,0,0,1,1-2.75C204.94,278.7,206.19,278.1,206.25,278.23Z" style="fill: rgb(38, 50, 56); transform-origin: 204.632px 280.517px;" id="elck68csrr5j" class="animable"></path><path d="M232.32,284.31c.05.15-1.3.67-2.68,1.74s-2.25,2.23-2.38,2.14a7,7,0,0,1,5.06-3.88Z" style="fill: rgb(38, 50, 56); transform-origin: 229.791px 286.252px;" id="elicgb2ewvc4c" class="animable"></path><path d="M223.94,277.69a21.43,21.43,0,0,1-2.07,1.5c-1.11.84-1.86,1.71-2,1.62a4.2,4.2,0,0,1,1.66-2A4.11,4.11,0,0,1,223.94,277.69Z" style="fill: rgb(38, 50, 56); transform-origin: 221.905px 279.253px;" id="elponu3969tsn" class="animable"></path><path d="M234,237.29a9.19,9.19,0,0,1-1.22,1.07c-.81.65-2,1.63-3.36,2.86a86.58,86.58,0,0,0-18.15,22.56c-.91,1.62-1.62,3-2.08,3.89a9.39,9.39,0,0,1-.79,1.42,11,11,0,0,1,.6-1.51c.41-1,1.07-2.33,2-4a77.4,77.4,0,0,1,8-12.2,78.29,78.29,0,0,1,10.19-10.46c1.43-1.2,2.62-2.14,3.48-2.74A8.72,8.72,0,0,1,234,237.29Z" style="fill: rgb(38, 50, 56); transform-origin: 221.2px 253.19px;" id="eljphpfftkb3" class="animable"></path><path d="M290.66,286.14s-4.71,7.91-4.8,10.55a43.13,43.13,0,0,0,.94,7.53s3.58,6.31,7.06,4.81c0,0-3.2-1.6-3.48-3.77,0,0,1.22.09.75-1.69a13,13,0,0,0-1.27-3.11l.61-4.15,4,10s.66,2.45,2.17,2.54l-.66-2.07a7.94,7.94,0,0,0,.66-4,57.5,57.5,0,0,0-2-6.78,13.63,13.63,0,0,1,2.54-5.27c1.79-2,3.3-6.78,3.3-6.78V269.19L301,246s1.45-13.21,1.27-16.41,2.53-15.54-.31-16.86-24.27,6.22-30.77,21.19-2.45,23.64,3.2,21.66S287.18,245,287.18,245s4.05,10.54,4.8,16.38.19,20.25.19,20.25Z" style="fill: #7E57C2; transform-origin: 285.559px 260.921px;" id="el6g656sl108p" class="animable"></path><path d="M285.94,232.94s.08.15.19.46l.47,1.36c.38,1.19.9,2.93,1.47,5.09a158.81,158.81,0,0,1,3.56,17.08A109.81,109.81,0,0,1,293,274.34c0,1.12-.06,2.13-.1,3s-.1,1.65-.18,2.27-.13,1-.17,1.43a1.87,1.87,0,0,1-.1.49,1.78,1.78,0,0,1,0-.5c0-.39.05-.87.08-1.44s.08-1.38.09-2.27.05-1.89,0-3A125.2,125.2,0,0,0,291.12,257c-1-6.72-2.34-12.74-3.4-17.07-.53-2.17-1-3.91-1.32-5.12-.15-.55-.27-1-.37-1.39A2,2,0,0,1,285.94,232.94Z" style="fill: rgb(38, 50, 56); transform-origin: 289.47px 257.235px;" id="elmbrycon4oc" class="animable"></path><path d="M289,243.76a10.32,10.32,0,0,1-1.15,1.12l-3.2,3c-1.36,1.24-3,2.71-4.83,4.3a34.62,34.62,0,0,1-3,2.4A11.45,11.45,0,0,1,273,256.2a7.4,7.4,0,0,1-4.18-.23,6.42,6.42,0,0,1-3-2.49,9.24,9.24,0,0,1-1.32-6.34,16.31,16.31,0,0,1,1.21-4.21c.2-.48.37-.84.49-1.08s.2-.37.22-.36a13.11,13.11,0,0,1-.52,1.51,18.06,18.06,0,0,0-1,4.18,9,9,0,0,0,1.35,6,5.89,5.89,0,0,0,2.79,2.28,6.91,6.91,0,0,0,3.89.2,11.18,11.18,0,0,0,3.65-1.58c1.07-.72,2-1.57,3-2.34l4.89-4.22c1.39-1.2,2.52-2.17,3.32-2.82A8.06,8.06,0,0,1,289,243.76Z" style="fill: rgb(38, 50, 56); transform-origin: 276.696px 248.944px;" id="el192vn3fw594" class="animable"></path><path d="M302.53,228.66a1.87,1.87,0,0,1,0-.54c0-.41.07-.92.11-1.54.1-1.33.27-3.25.42-5.63.06-1.19.12-2.5.11-3.89a19.58,19.58,0,0,0-.15-2.14,3.35,3.35,0,0,0-.77-2,2.1,2.1,0,0,0-2.05-.37,12.49,12.49,0,0,0-2.28.94c-1.55.73-3.14,1.54-4.75,2.38a134.54,134.54,0,0,0-15.83,9.8c-1.94,1.38-3.47,2.56-4.53,3.37-.5.37-.9.68-1.22.93a2.67,2.67,0,0,1-.45.3,2.58,2.58,0,0,1,.38-.38l1.16-1c1-.85,2.52-2.08,4.44-3.51a120.34,120.34,0,0,1,15.81-10c1.62-.85,3.21-1.65,4.77-2.38a12.44,12.44,0,0,1,2.39-1,2.57,2.57,0,0,1,2.5.51,3.84,3.84,0,0,1,.89,2.24,21.13,21.13,0,0,1,.12,2.2c0,1.42-.08,2.73-.18,3.92-.19,2.39-.42,4.31-.58,5.63-.08.62-.15,1.12-.2,1.53A2.34,2.34,0,0,1,302.53,228.66Z" style="fill: rgb(38, 50, 56); transform-origin: 287.37px 221.071px;" id="elzwd05vuaezk" class="animable"></path><g id="el94iujztm7d5"><g style="opacity: 0.2; transform-origin: 222.525px 259.665px;" class="animable" id="el1vwqdugdubu"><polygon points="217.4 259.42 219.78 254.89 227.43 255.32 227.65 260.55 220.65 264.44 218.19 262.87 217.4 259.42" id="el8vvfv9ft1op" class="animable" style="transform-origin: 222.525px 259.665px;"></polygon></g></g><g id="el39mz1bzcmsj"><g style="opacity: 0.2; transform-origin: 227.145px 250.022px;" class="animable" id="elzhmm4gm1cu"><path d="M223.58,252.49s5.61.46,5.57.25,1.56-3.49,1.56-3.49l-3.36-2Z" id="el5hl8u21r1xe" class="animable" style="transform-origin: 227.145px 250.022px;"></path></g></g><g id="elwgs2emitpkg"><g style="opacity: 0.2; transform-origin: 232.4px 255.545px;" class="animable" id="elro1es3n1ju9"><path d="M228.9,254.89c0,.31,1,3.71,1,3.71s6-.54,6-.52-.33-5.15-.37-5.29a15.37,15.37,0,0,0-2.37-.3Z" id="elb1xozi40hqa" class="animable" style="transform-origin: 232.4px 255.545px;"></path></g></g><g id="elmn0jc53m7gf"><g style="opacity: 0.2; transform-origin: 236.715px 247.725px;" class="animable" id="elh78m7mkiod"><polygon points="233.01 250.91 234.04 245.93 237.03 244.54 240.42 245.93 238.6 250.43 233.01 250.91" id="ellvv0xjwipxd" class="animable" style="transform-origin: 236.715px 247.725px;"></polygon></g></g><g id="elnmx6bxb7lmq"><g style="opacity: 0.2; transform-origin: 299.21px 225.775px;" class="animable" id="el0xn44axi78cb"><polygon points="297.22 226.77 299.51 228.09 301.2 225.87 299.81 223.46 297.22 224.01 297.22 226.77" id="elu06s4en8j9" class="animable" style="transform-origin: 299.21px 225.775px;"></polygon></g></g><g id="elc8j3roywa0l"><g style="opacity: 0.2; transform-origin: 297.243px 218.575px;" class="animable" id="elw9soy9cko28"><path d="M292.64,219.39l4,4.07,4.55-2.19s.73-4.61.65-4.86-2.15-2.72-2.15-2.72l-5.11,2.81Z" id="elf4ehcmtlimo" class="animable" style="transform-origin: 297.243px 218.575px;"></path></g></g><g id="eleilgrk1b3h"><g style="opacity: 0.2; transform-origin: 291.88px 222.92px;" class="animable" id="elx4jqdys36cc"><path d="M291.88,220.38a32.67,32.67,0,0,1,2.32,3.08l-2.22,2-2.42-1.7v-2.53Z" id="elj3hf822kzhm" class="animable" style="transform-origin: 291.88px 222.92px;"></path></g></g><g id="el5mopfgevd8o"><g style="opacity: 0.3; transform-origin: 279.585px 251.9px;" class="animable" id="eluljex3t1kf"><path d="M267.37,254.91c1.66,3.28,6,4.46,9.55,3.64s6.58-3.18,9.43-5.5A16.7,16.7,0,0,0,291.8,260c-1.24-5.58-1.28-10.92-2.84-16.2-11,9.92-16.53,15.11-21.47,11.38" id="elgqh1f6j6iji" class="animable" style="transform-origin: 279.585px 251.9px;"></path></g></g><path d="M299.71,240.44c0,.16-2.49.29-5.37,1.31s-4.94,2.45-5,2.31a15,15,0,0,1,10.4-3.62Z" style="fill: rgb(38, 50, 56); transform-origin: 294.54px 242.249px;" id="el42shf6wf11f" class="animable"></path><path d="M301.08,259.74c0,.15-2-.22-4.43-.15s-4.37.49-4.41.34a9.91,9.91,0,0,1,4.4-.86A9.76,9.76,0,0,1,301.08,259.74Z" style="fill: rgb(38, 50, 56); transform-origin: 296.66px 259.5px;" id="elxl1oegqgmt" class="animable"></path><path d="M300.25,280.14c-.07.14-1.68-.59-3.76-1.16s-3.83-.78-3.82-.93a8.8,8.8,0,0,1,4,.43A9,9,0,0,1,300.25,280.14Z" style="fill: rgb(38, 50, 56); transform-origin: 296.46px 279.07px;" id="elwvhskhej4r" class="animable"></path><path d="M279.56,251.67a3.8,3.8,0,0,1-.52-.86c-.31-.56-.71-1.4-1.16-2.45a43.19,43.19,0,0,1-2.59-8.59,42.72,42.72,0,0,1-.74-8.93c0-1.15.1-2.07.18-2.71a3.33,3.33,0,0,1,.17-1c.08,0,0,1.42,0,3.7a50.26,50.26,0,0,0,3.3,17.38C279,250.35,279.64,251.63,279.56,251.67Z" style="fill: rgb(38, 50, 56); transform-origin: 277.053px 239.4px;" id="elgpv4uo65vig" class="animable"></path><g id="eljaz530ob3ee"><g style="opacity: 0.3; transform-origin: 260.69px 267.701px;" class="animable" id="elay8jkftvt95"><path d="M291.8,268a35,35,0,0,1-17.31-1.39c-5.25-1.94-10.31-4.54-15.82-5.52-10.67-1.91-23.1,4.52-29.09,13.56,0,0,4-4.2,8.24-5.81s7.8-3.53,13-3,10.6,3.73,14.55,4.89,10,3.09,14.22,2.36A36.12,36.12,0,0,0,291.8,268Z" id="elr91gnw6pz4" class="animable" style="transform-origin: 260.69px 267.701px;"></path></g></g><path d="M230.46,271.45c-.05.08-1-.58-2.67-1.46a32.77,32.77,0,0,0-14-3.87c-1.87-.09-3,0-3.05-.12a3,3,0,0,1,.82-.14,18.07,18.07,0,0,1,2.24-.11A28.16,28.16,0,0,1,228,269.67a20,20,0,0,1,1.87,1.24A2.77,2.77,0,0,1,230.46,271.45Z" style="fill: rgb(38, 50, 56); transform-origin: 220.6px 268.603px;" id="el1qq95aiwqsr" class="animable"></path><path d="M247.36,239.19a10.42,10.42,0,0,1,1.73,2.15A31.73,31.73,0,0,1,254,253.61a10.49,10.49,0,0,1,.26,2.74,21.25,21.25,0,0,1-.62-2.67,41.47,41.47,0,0,0-2-6.27,42.86,42.86,0,0,0-2.95-5.87A23.21,23.21,0,0,1,247.36,239.19Z" style="fill: rgb(38, 50, 56); transform-origin: 250.814px 247.77px;" id="elbwnowg0yiwg" class="animable"></path><path d="M347.24,184.92l3.38,227.82H292.67S302.8,184.93,303,184.89C326.08,180.23,347.24,184.92,347.24,184.92Z" style="fill: rgb(235, 235, 235); fill-rule: evenodd; transform-origin: 321.645px 297.783px;" id="elaefdbnv5iu" class="animable"></path><path d="M357.92,120.61l-10.08-9.78A589.47,589.47,0,0,1,331.24,25c-5.93,33.74-10.57,64.78-18.73,85.86l-7.24,11.3S327.48,108.32,357.92,120.61Z" style="fill: #7E57C2; fill-rule: evenodd; transform-origin: 331.595px 73.58px;" id="elopsp6j2eigh" class="animable"></path><path d="M305.27,122.12s24.42-14.87,52.65-1.51C357.92,120.61,333.15,132,305.27,122.12Z" style="fill: rgb(38, 50, 56); fill-rule: evenodd; transform-origin: 331.595px 120.596px;" id="elelaxr3xwuj" class="animable"></path><path d="M312,176.15l2.25-51.56s16.8-8,31-1.27l-1.15,50.1Z" style="fill: rgb(224, 224, 224); fill-rule: evenodd; transform-origin: 328.625px 148.388px;" id="elxx77wp1yazn" class="animable"></path><path d="M314.21,124.59l-5.11-3.1s26-11.3,42.86-.27l-6.76,2.1S332.21,117.36,314.21,124.59Z" style="fill: rgb(38, 50, 56); fill-rule: evenodd; transform-origin: 330.53px 120.488px;" id="elx55lkf4vso" class="animable"></path><polygon points="309.1 121.49 313.76 134.91 314.35 124.11 309.1 121.49" style="fill: rgb(38, 50, 56); fill-rule: evenodd; transform-origin: 311.725px 128.2px;" id="el98lquizxiqv" class="animable"></polygon><path d="M333.21,116.39l-.58,17.18,6-16.9S334.36,116.37,333.21,116.39Z" style="fill: rgb(38, 50, 56); fill-rule: evenodd; transform-origin: 335.63px 124.98px;" id="elza5ia5f2qo" class="animable"></path><path d="M332.63,133.57l3.42,0,8.11-15.82a30.14,30.14,0,0,0-5.5-1.06Z" style="fill: rgb(69, 90, 100); fill-rule: evenodd; transform-origin: 338.395px 125.13px;" id="elyhne7rqtt5" class="animable"></path><polygon points="351.96 121.22 344.96 133.5 345.2 123.32 351.96 121.22" style="fill: rgb(38, 50, 56); fill-rule: evenodd; transform-origin: 348.46px 127.36px;" id="elles3rwbdw4e" class="animable"></polygon><polygon points="344.96 133.5 344.92 135.55 352.68 122.54 351.96 121.22 344.96 133.5" style="fill: rgb(69, 90, 100); fill-rule: evenodd; transform-origin: 348.8px 128.385px;" id="el7ewq0fjvgg5" class="animable"></polygon><polygon points="309.1 121.49 308.54 123.19 313.66 137.29 313.76 134.91 309.1 121.49" style="fill: rgb(69, 90, 100); fill-rule: evenodd; transform-origin: 311.15px 129.39px;" id="eli11gyfki39o" class="animable"></polygon><path d="M318.1,154.82s0-11.06-1.47-12-2.33,13.39-2.33,13.39Z" style="fill: rgb(69, 90, 100); fill-rule: evenodd; transform-origin: 316.2px 149.493px;" id="elwu3ssfrjqvc" class="animable"></path><path d="M316.2,155.5s-.62-8.31,1.3-10.18a69.17,69.17,0,0,1,.6,9.5Z" style="fill: rgb(38, 50, 56); fill-rule: evenodd; transform-origin: 317.103px 150.41px;" id="elafgffy6w9qr" class="animable"></path><path d="M305.27,122.12l7.24-11.3s16.65-9.74,35.33,0l10.08,9.78S330.64,106.49,305.27,122.12Z" style="fill: #7E57C2; fill-rule: evenodd; transform-origin: 331.595px 114.306px;" id="ely4qjxzge9x" class="animable"></path><g id="el1yc6yhdhkdy"><g style="mix-blend-mode: multiply; opacity: 0.4; transform-origin: 331.595px 127.446px;" class="animable" id="el54t29xypg07"><path d="M308.54,123.18l5.12,14.11-.12,2.78s19.82-7.34,31.38-4.52l7.76-13,5.24-1.93s-23.83-14-52.65,1.51Z" style="fill-rule: evenodd; transform-origin: 331.595px 127.446px;" id="elqxf9vv67e09" class="animable"></path></g></g><polygon points="337.84 156.76 335.77 155.53 334.38 168.97 336.57 169.25 337.84 156.76" style="fill: rgb(38, 50, 56); fill-rule: evenodd; transform-origin: 336.11px 162.39px;" id="ela4t2g0xv2m6" class="animable"></polygon><polygon points="308.67 157.64 311.01 159.08 310.53 169.7 308.46 170.17 308.67 157.64" style="fill: rgb(38, 50, 56); fill-rule: evenodd; transform-origin: 309.735px 163.905px;" id="el588ois7p602" class="animable"></polygon><path d="M296.81,183.32l5.93,5.91s22.28-6.88,44.47-1.12l5.94-4.18S335.22,173.27,296.81,183.32Z" style="fill: rgb(224, 224, 224); fill-rule: evenodd; transform-origin: 324.98px 184.118px;" id="elde2dosrwmms" class="animable"></path><path d="M353.21,177l.12-14.14c-2.85-4-8.13-5.33-8.13-5.33L343.51,170l-8.13-.8.39-13.66c-11.19-2.9-19.51.16-19.51.16L315.5,169l-7.2,1.22.28-12.52a23,23,0,0,0-9.47,5.73l-2.23,13.81-.07,6.12s32.37-9.36,56.34.61l.06-7" style="fill: rgb(224, 224, 224); fill-rule: evenodd; transform-origin: 325.07px 169.131px;" id="elap1jo4y64jk" class="animable"></path><g id="els1rhrkvqy8"><g style="mix-blend-mode: multiply; opacity: 0.4; transform-origin: 324.98px 192.822px;" class="animable" id="eltc2gtwc8jlf"><path d="M296.81,183.32l5.93,5.91-.57,17.15s27.34-8.27,45.37-.7l-.28-17.55,5.89-4.2S335.62,173.85,296.81,183.32Z" style="fill-rule: evenodd; transform-origin: 324.98px 192.822px;" id="elwlcum3wwbam" class="animable"></path></g></g><polygon points="361.54 285.38 361.54 267.71 344.41 256.1 342.51 256.35 348.8 409.73 366.4 405.75 363.45 309.26 366.88 307.63 366.88 289.1 361.54 285.38" style="fill: rgb(235, 235, 235); fill-rule: evenodd; transform-origin: 354.695px 332.915px;" id="elvmoultn8x3b" class="animable"></polygon><path d="M347.26,188.13a10.93,10.93,0,0,1-1.74-.32c-1.11-.26-2.72-.58-4.73-.92s-4.4-.64-7.08-.87-5.63-.3-8.73-.23-6,.35-8.7.68-5,.77-7,1.2-3.59.8-4.69,1.09a9.83,9.83,0,0,1-1.73.39,12.4,12.4,0,0,1,1.67-.58c1.09-.36,2.68-.79,4.67-1.26s4.38-.93,7-1.32a87.19,87.19,0,0,1,8.76-.72,84.81,84.81,0,0,1,8.78.27c2.69.25,5.1.6,7.11,1s3.61.76,4.71,1.08A11.7,11.7,0,0,1,347.26,188.13Z" style="fill: rgb(38, 50, 56); transform-origin: 325.06px 187.201px;" id="el62ilg2b603b" class="animable"></path><path d="M347.39,110.08a7.37,7.37,0,0,1-1.36-.35c-.43-.13-.95-.29-1.57-.44s-1.31-.37-2.1-.52a50.25,50.25,0,0,0-5.54-.94,49.26,49.26,0,0,0-13.72.36,50.51,50.51,0,0,0-5.49,1.23c-.78.2-1.46.44-2.07.63s-1.12.37-1.55.52a7.37,7.37,0,0,1-1.33.43,6.09,6.09,0,0,1,1.26-.61c.41-.19.92-.4,1.53-.62s1.28-.48,2.06-.7a43.64,43.64,0,0,1,5.51-1.35,45.95,45.95,0,0,1,13.85-.37,46.51,46.51,0,0,1,5.58,1.06c.78.18,1.48.41,2.09.6s1.13.36,1.56.53A8.28,8.28,0,0,1,347.39,110.08Z" style="fill: rgb(38, 50, 56); transform-origin: 330.025px 108.997px;" id="el1st5hmsnfii" class="animable"></path><path d="M296.88,177.2a.87.87,0,0,1,0-.24c0-.18.05-.41.09-.7.09-.65.23-1.55.39-2.71L299,163.36v-.05l0,0a24.78,24.78,0,0,1,4.09-3.31,20.06,20.06,0,0,1,5.45-2.51l.26-.07v.27c-.07,3.78-.16,8-.25,12.53l-.27-.24,7.2-1.23-.21.22c.24-4.2.49-8.66.76-13.26v-.18l.15-.05a32.75,32.75,0,0,1,9.92-1.43,40.18,40.18,0,0,1,9.74,1.26l.2.05v.2c-.14,4.74-.27,9.32-.4,13.67l-.22-.25,8.14.81-.25.2q.93-6.78,1.72-12.49l0-.23.21.07a15.54,15.54,0,0,1,8.2,5.43l0,0v.05c-.06,4.45-.12,8-.15,10.43,0,1.18-.05,2.1-.07,2.76,0,.29,0,.53,0,.71a.75.75,0,0,1,0,.24,1.1,1.1,0,0,1,0-.24c0-.18,0-.42,0-.71,0-.66,0-1.58,0-2.77,0-2.45,0-6,0-10.42l0,.09a15.38,15.38,0,0,0-8.05-5.23l.25-.16c-.51,3.79-1.06,8-1.66,12.49l0,.22-.22,0-8.13-.78-.23,0v-.23c.12-4.36.25-8.93.38-13.67l.19.26a39.61,39.61,0,0,0-9.61-1.24,32.91,32.91,0,0,0-9.74,1.39l.17-.22c-.27,4.6-.53,9.06-.78,13.26v.2l-.19,0-7.2,1.21-.28.05v-.28c.11-4.52.21-8.75.31-12.53l.25.2a22.52,22.52,0,0,0-9.41,5.64l0-.08c-.73,4.33-1.31,7.77-1.71,10.16-.2,1.16-.36,2.06-.48,2.71-.05.28-.09.51-.13.69A.67.67,0,0,1,296.88,177.2Z" style="fill: rgb(38, 50, 56); transform-origin: 325.156px 165.624px;" id="elwyzltdt8ee" class="animable"></path><path d="M332.69,337.45a2.52,2.52,0,0,0,.43-.16,1,1,0,0,0,.45-1.11c0-1.26-.05-2.94-.09-5v-.4a.78.78,0,0,0-.07-.31.82.82,0,0,0-.5-.43,5.29,5.29,0,0,0-.82,0h-.91l-3.95,0-9,0a.74.74,0,0,0-.68.47,5.17,5.17,0,0,0-.05,1.09V334c0,.76,0,1.5,0,2.23a.85.85,0,0,0,1.05,1l7.38.05,5,.09,1.36,0a1.34,1.34,0,0,1,.47.05,1.74,1.74,0,0,1-.47.05l-1.36.05-5,.08-7.38.06a3,3,0,0,1-.58,0,1.22,1.22,0,0,1-.58-.31,1.25,1.25,0,0,1-.34-.56,2.25,2.25,0,0,1,0-.61c0-.73,0-1.47,0-2.23v-2.89a1.69,1.69,0,0,1,.07-.68,1.25,1.25,0,0,1,1.17-.81l9,0,3.95,0h.91a4.39,4.39,0,0,1,.93.06,1.17,1.17,0,0,1,.74.65,1.28,1.28,0,0,1,.1.47v.4c0,2-.06,3.72-.08,5a1.41,1.41,0,0,1-.16.8,1,1,0,0,1-.44.4A.72.72,0,0,1,332.69,337.45Z" style="fill: rgb(38, 50, 56); transform-origin: 325.475px 333.62px;" id="elq2zblywdwtl" class="animable"></path><path d="M315.29,367.16a4.45,4.45,0,0,0,.43-.16,1,1,0,0,0,.45-1.11c0-1.26-.05-2.94-.08-5v-.4a.71.71,0,0,0-.07-.32.78.78,0,0,0-.5-.42,4.25,4.25,0,0,0-.82,0h-.91l-3.95,0-9,0a.73.73,0,0,0-.68.47,6,6,0,0,0,0,1.08c0,.79,0,1.56,0,2.31v2.23a.84.84,0,0,0,1,1l7.39.05,5,.08,1.35.05a1.47,1.47,0,0,1,.47.06,2.48,2.48,0,0,1-.47,0l-1.35.05-5,.08-7.39.06a3.07,3.07,0,0,1-.58,0,1.19,1.19,0,0,1-.57-.31,1.17,1.17,0,0,1-.35-.57,2.62,2.62,0,0,1,0-.6c0-.73,0-1.47,0-2.23v-2.89a1.7,1.7,0,0,1,.08-.68,1.23,1.23,0,0,1,1.16-.81l9,0,3.95,0h.91a4.31,4.31,0,0,1,.93.05,1.17,1.17,0,0,1,.74.65,1.15,1.15,0,0,1,.1.48v.4c0,2-.06,3.72-.09,5a1.41,1.41,0,0,1-.15.8,1,1,0,0,1-.45.4A.73.73,0,0,1,315.29,367.16Z" style="fill: rgb(38, 50, 56); transform-origin: 308.086px 363.229px;" id="ela27yonte6os" class="animable"></path><path d="M340.3,329.85a4.45,4.45,0,0,0,.43-.16,1,1,0,0,0,.45-1.11c0-1.26-.05-2.94-.08-5v-.4a.88.88,0,0,0-.07-.32.81.81,0,0,0-.5-.42,4.28,4.28,0,0,0-.82,0h-.91l-4,0-9,0a.73.73,0,0,0-.68.47,5.18,5.18,0,0,0,0,1.08c0,.79,0,1.56,0,2.31s0,1.5,0,2.23a.85.85,0,0,0,1.05,1l7.38.05,5,.08,1.36.05a1.47,1.47,0,0,1,.47.06,2.48,2.48,0,0,1-.47,0l-1.36.05-5,.08-7.38.06a4.16,4.16,0,0,1-.58,0,1.23,1.23,0,0,1-.92-.88,2.15,2.15,0,0,1,0-.6c0-.73,0-1.47,0-2.23v-2.89a1.87,1.87,0,0,1,.07-.68,1.25,1.25,0,0,1,1.17-.81l9,0,4,0h.91a4.31,4.31,0,0,1,.93.05,1.2,1.2,0,0,1,.74.65,1.33,1.33,0,0,1,.1.48v.4c0,2-.06,3.72-.08,5a1.49,1.49,0,0,1-.15.8,1,1,0,0,1-.45.4A.72.72,0,0,1,340.3,329.85Z" style="fill: rgb(38, 50, 56); transform-origin: 333.119px 325.917px;" id="elggtlnk6ihog" class="animable"></path><path d="M322.24,298.33s.17,0,.44-.11a1.62,1.62,0,0,0,.92-.82,5.42,5.42,0,0,0,.12-2c0-.83,0-1.75,0-2.77a1.54,1.54,0,0,0-.47-1.31,1.35,1.35,0,0,0-.66-.34,5.53,5.53,0,0,0-.84,0l-3.85,0L309,291a1.36,1.36,0,0,0-1.35,1.17c0,.69,0,1.49,0,2.21s0,1.47,0,2.18a1.4,1.4,0,0,0,.85,1.45,2.08,2.08,0,0,0,.89.11h2.85l3.36,0,4.86.08a12.61,12.61,0,0,1,1.78.1,11.49,11.49,0,0,1-1.78.11l-4.86.08-3.36,0h-2.85a2.62,2.62,0,0,1-1.08-.14,1.91,1.91,0,0,1-1.16-1.89v-2.18c0-.75,0-1.45,0-2.28a1.88,1.88,0,0,1,1.87-1.62l8.83,0,3.85,0a5,5,0,0,1,.93.05,1.86,1.86,0,0,1,.84.45,1.94,1.94,0,0,1,.57,1.61c0,1,0,1.94,0,2.77,0,.41,0,.79,0,1.14a1.9,1.9,0,0,1-.21,1,1.64,1.64,0,0,1-1.07.83C322.41,298.38,322.24,298.35,322.24,298.33Z" style="fill: rgb(38, 50, 56); transform-origin: 315.599px 294.437px;" id="elg5r07llpbah" class="animable"></path><path d="M321.79,282.51s.16,0,.44-.12a1.58,1.58,0,0,0,.91-.81,5.25,5.25,0,0,0,.12-2c0-.83,0-1.75,0-2.77a1.58,1.58,0,0,0-.48-1.32,1.42,1.42,0,0,0-.66-.33,3.74,3.74,0,0,0-.84,0l-3.85,0-8.83,0a1.37,1.37,0,0,0-1.35,1.17c0,.69,0,1.5,0,2.22s0,1.46,0,2.17a1.45,1.45,0,0,0,.85,1.46,2.15,2.15,0,0,0,.9.11h2.85l3.35,0,4.87.08a11.07,11.07,0,0,1,1.78.1,11.07,11.07,0,0,1-1.78.1l-4.87.08-3.35,0h-2.85a2.62,2.62,0,0,1-1.08-.14,1.89,1.89,0,0,1-1.16-1.9c0-.71,0-1.43,0-2.17s0-1.46,0-2.29a1.89,1.89,0,0,1,1.86-1.62l8.83,0,3.85,0a4.24,4.24,0,0,1,.93.05,1.75,1.75,0,0,1,.85.45,1.93,1.93,0,0,1,.56,1.61c0,1,0,1.94,0,2.77q0,.6,0,1.14a1.83,1.83,0,0,1-.21,1,1.69,1.69,0,0,1-1.06.83A.89.89,0,0,1,321.79,282.51Z" style="fill: rgb(38, 50, 56); transform-origin: 315.204px 278.591px;" id="eleh9dm7qty1k" class="animable"></path><g id="elcj4jomu0tii"><g style="opacity: 0.1; transform-origin: 322.08px 286.39px;" class="animable" id="el3al5x5mmt01"><rect x="313.85" y="282.58" width="16.46" height="7.62" rx="1.62" id="elip8bmkz59eh" class="animable" style="transform-origin: 322.08px 286.39px;"></rect></g></g><g id="elnkw9r1zdbjn"><g style="opacity: 0.1; transform-origin: 350.62px 357.04px;" class="animable" id="el0t5dcyh7o6ui"><rect x="342.39" y="353.23" width="16.46" height="7.62" rx="0.98" id="el316pfyrxvau" class="animable" style="transform-origin: 350.62px 357.04px;"></rect></g></g><path d="M330.52,218.85a2.83,2.83,0,0,0,.44-.13,1.18,1.18,0,0,0,.66-1c0-1.25-.05-2.92-.08-4.94a2,2,0,0,0-.08-.71,1,1,0,0,0-.46-.51,1.37,1.37,0,0,0-.75-.11h-.91l-3.91,0-9,0a.94.94,0,0,0-.78.42,1,1,0,0,0-.15.43c0,.15,0,.38,0,.56,0,.78,0,1.54,0,2.29s0,1.49,0,2.21a1,1,0,0,0,.95,1.2l7.32.06,4.94.08,1.35.05a2.43,2.43,0,0,1,.46,0,1.43,1.43,0,0,1-.46.06l-1.35.05-4.94.08-7.33.05a1.41,1.41,0,0,1-1.1-.52,1.47,1.47,0,0,1-.29-.57,2.47,2.47,0,0,1,0-.59c0-.72,0-1.46,0-2.21v-2.29c0-.2,0-.36,0-.61a1.58,1.58,0,0,1,.23-.66,1.44,1.44,0,0,1,1.22-.66l9,0,3.91,0h.91a1.78,1.78,0,0,1,.94.17,1.51,1.51,0,0,1,.63.72,2.21,2.21,0,0,1,.08.86c0,2.09,0,3.77-.08,4.95a1.24,1.24,0,0,1-.82,1.08A.72.72,0,0,1,330.52,218.85Z" style="fill: rgb(38, 50, 56); transform-origin: 323.507px 214.931px;" id="elyuk7a5wcj1f" class="animable"></path><g id="elo3beu7bq2s"><g style="opacity: 0.1; transform-origin: 330.39px 222.73px;" class="animable" id="eln4j7hb3xqy"><rect x="322.16" y="218.92" width="16.46" height="7.62" rx="1.2" id="elgi4q3a75jwa" class="animable" style="transform-origin: 330.39px 222.73px;"></rect></g></g><path d="M314.19,389.8h0a6.55,6.55,0,0,1,6.55,6.55v16.39a0,0,0,0,1,0,0h-13.1a0,0,0,0,1,0,0V396.35A6.55,6.55,0,0,1,314.19,389.8Z" style="fill: rgb(38, 50, 56); transform-origin: 314.19px 401.27px;" id="el2tejzei3jm" class="animable"></path><g id="eloc3vla4efvd"><g style="opacity: 0.1; transform-origin: 297.3px 410.2px;" class="animable" id="elf3vxruuyzf"><path d="M294,410.41c.14-.28.84-2.37.84-2.37h4.73l1.05,3.48-1,.84h-5.22l-.42-1.47" id="el0t34nxd0c1zq" class="animable" style="transform-origin: 297.3px 410.2px;"></path></g></g><g id="elnfar31q8ru"><g style="opacity: 0.1; transform-origin: 303.685px 408.04px;" class="animable" id="elmzqymn63kxp"><polygon points="301.71 410.59 300.62 407.55 303.58 404.44 306.75 405.79 306.75 410.59 303.68 411.64 301.71 410.59" id="elpcwmu8a8xdn" class="animable" style="transform-origin: 303.685px 408.04px;"></polygon></g></g><g id="el78m7z7i2eof"><g style="opacity: 0.1; transform-origin: 333.935px 398.225px;" class="animable" id="elbgm692zdhl"><polygon points="331.96 400.77 330.87 397.73 333.83 394.62 337 395.97 337 400.77 333.93 401.83 331.96 400.77" id="elrdsb07xzmxj" class="animable" style="transform-origin: 333.935px 398.225px;"></polygon></g></g><g id="elp9lfu0a0owr"><g style="opacity: 0.1; transform-origin: 326.49px 406.065px;" class="animable" id="elagegqomv4tq"><polygon points="321.48 405.94 323.3 401.65 329.47 401.27 331.5 405.79 326.8 410.86 322.53 408.98 321.48 405.94" id="eljfuakof7ema" class="animable" style="transform-origin: 326.49px 406.065px;"></polygon></g></g><g id="el7ridkvhk2i4"><g style="opacity: 0.1; transform-origin: 299.385px 403.27px;" class="animable" id="el33zu48jxuxk"><path d="M295.77,405.61c.32.06,3.3,1,3.3,1l3.93-3.28-2.38-2.93-3.77-.47Z" id="el51mm0jknjce" class="animable" style="transform-origin: 299.385px 403.27px;"></path></g></g><g id="elx3747gi5ib"><g style="opacity: 0.1; transform-origin: 342.175px 398.57px;" class="animable" id="elbe6uzwv20kc"><path d="M338.56,400.91c.32.06,3.3,1,3.3,1l3.93-3.28-2.38-2.93-3.77-.47Z" id="elzhm6khp9uxs" class="animable" style="transform-origin: 342.175px 398.57px;"></path></g></g><path d="M251.08,231h0s6.55-33.4,2.72-54.37S258.27,148,258.27,148A33.08,33.08,0,0,1,263.44,129a14.17,14.17,0,0,1-1.42-.82,6.71,6.71,0,0,1-3.1-4.23c-.46-2.9,2.24-5.7,5.47-6.4a12,12,0,0,1,7.76,1.23,75.39,75.39,0,0,1,21.48-13.2L287,91.2C276.4,44.75,392.38,32.65,392.38,32.65c-17.36-16-152.58-3.13-159.14,3.92S212.07,60,208.37,74.17,184.8,100.3,184.8,100.3l2.06,30.7,49.57,51.66ZM246,96.65c7.24-9.1,20.37-12.48,32.63-9.9C269.46,92.63,257.33,97,246,96.65Zm-15.58-4.54c3.11-3.91,8.77-5.37,14-4.26A25.82,25.82,0,0,1,230.41,92.11Zm17.49,35.18a2.25,2.25,0,0,1,.39-3.48l.21-.35a3.21,3.21,0,0,1,3.17.32,2.34,2.34,0,0,1,.21,3.52A3.1,3.1,0,0,1,247.9,127.29Z" style="fill: #7E57C2; transform-origin: 288.59px 127.986px;" id="elrm3d9cssfr" class="animable"></path><g id="el10xnmz5t20d"><g style="opacity: 0.3; transform-origin: 288.59px 127.986px;" class="animable" id="elemw4erl6huu"><path d="M251.08,231h0s6.55-33.4,2.72-54.37S258.27,148,258.27,148A33.08,33.08,0,0,1,263.44,129a14.17,14.17,0,0,1-1.42-.82,6.71,6.71,0,0,1-3.1-4.23c-.46-2.9,2.24-5.7,5.47-6.4a12,12,0,0,1,7.76,1.23,75.39,75.39,0,0,1,21.48-13.2L287,91.2C276.4,44.75,392.38,32.65,392.38,32.65c-17.36-16-152.58-3.13-159.14,3.92S212.07,60,208.37,74.17,184.8,100.3,184.8,100.3l2.06,30.7,49.57,51.66ZM246,96.65c7.24-9.1,20.37-12.48,32.63-9.9C269.46,92.63,257.33,97,246,96.65Zm-15.58-4.54c3.11-3.91,8.77-5.37,14-4.26A25.82,25.82,0,0,1,230.41,92.11Zm17.49,35.18a2.25,2.25,0,0,1,.39-3.48l.21-.35a3.21,3.21,0,0,1,3.17.32,2.34,2.34,0,0,1,.21,3.52A3.1,3.1,0,0,1,247.9,127.29Z" id="el8daolwa5y5y" class="animable" style="transform-origin: 288.59px 127.986px;"></path></g></g><path d="M251.31,238.63s-1.23-42.75-5.72-52.57-49.09-50.85-50.43-53.21-4.59-7-5-9.44-3.31-23.82-3.31-23.82.44-10.36,8.8-13.22c0,0-9.64-3-14.54,11.85s-.28,39.89-.28,39.89,13.08,1.74,22.5,14.78,22.7,22.05,26.26,31.22,5.12,54.52,5.12,54.52Z" style="fill: #7E57C2; transform-origin: 215.084px 162.376px;" id="elfh9qucqf24b" class="animable"></path><path d="M291.49,105.51a1,1,0,0,1-.29,0l-.84.06-3.23.21-11.88.71c-10,.62-23.89,1.47-39.11,3.28-7.61.91-14.83,2-21.36,3.19s-12.36,2.54-17.24,3.73a12.55,12.55,0,0,0-5.94,2.89,7.35,7.35,0,0,0-2.06,4.49,6.19,6.19,0,0,0,.47,3.12c.31.66.59,1,.56,1a3.53,3.53,0,0,1-.66-.92,6.12,6.12,0,0,1-.57-3.19,7.46,7.46,0,0,1,2-4.67,12.74,12.74,0,0,1,6.06-3.05c4.88-1.24,10.7-2.64,17.24-3.84s13.77-2.33,21.39-3.24c15.24-1.81,29.12-2.6,39.15-3.13l11.89-.54,3.24-.11.84,0Z" style="fill: #7E57C2; transform-origin: 240.402px 116.845px;" id="elbqpbvspzg6d" class="animable"></path><path d="M392.38,32.65h-.62L390,32.56c-1.58-.07-3.92-.23-6.94-.35-6-.11-14.77-.2-25.53.63A295,295,0,0,0,320,38.32a384.86,384.86,0,0,0-44.7,12.32c-7.81,2.61-15.32,5.47-22.41,8.62a157.38,157.38,0,0,0-19.73,10.47,135.4,135.4,0,0,0-16.23,12,132.56,132.56,0,0,0-12.61,12.31,93.33,93.33,0,0,0-14.31,21c-.69,1.34-1.2,2.58-1.67,3.64s-.83,2-1.1,2.72-.5,1.29-.65,1.69-.24.57-.24.57,0-.2.19-.59l.6-1.7c.26-.76.59-1.68,1.06-2.75s.95-2.32,1.63-3.67a91.5,91.5,0,0,1,14.22-21.19,131.49,131.49,0,0,1,12.6-12.38,135.22,135.22,0,0,1,16.25-12.13A156.94,156.94,0,0,1,252.7,58.8c7.11-3.17,14.64-6,22.46-8.65a379,379,0,0,1,44.76-12.3,290.68,290.68,0,0,1,37.54-5.38A244.44,244.44,0,0,1,383,32c3,.15,5.35.34,6.94.44l1.8.14Z" style="fill: #7E57C2; transform-origin: 289.365px 77.7599px;" id="elq0lacfuy30p" class="animable"></path><path d="M258.27,148a4.53,4.53,0,0,1-.63-.45l-1.74-1.35c-1.48-1.21-3.7-2.85-6.5-4.8a98.76,98.76,0,0,0-23.66-12.07,89.89,89.89,0,0,0-14.2-3.56c-2.24-.27-4.35-.63-6.36-.73-1-.07-2-.16-2.89-.21l-2.67-.06c-1.71-.07-3.25,0-4.61.06l-1.88.06-1.59.13-2.19.17a4.08,4.08,0,0,1-.77,0,4.32,4.32,0,0,1,.76-.13l2.18-.26,1.59-.18,1.89-.1c1.36-.06,2.91-.19,4.62-.14l2.69,0c.93,0,1.9.12,2.91.18,2,.08,4.14.42,6.39.68a88.46,88.46,0,0,1,14.3,3.55,94.25,94.25,0,0,1,23.7,12.26c2.78,2,5,3.69,6.42,4.94l1.68,1.43A3.55,3.55,0,0,1,258.27,148Z" style="fill: #7E57C2; transform-origin: 223.425px 136.184px;" id="elhz4ynn30nv" class="animable"></path><path d="M246.74,187.06a1.7,1.7,0,0,1,.14.49l.3,1.4c.25,1.22.57,3,.93,5.2.72,4.4,1.55,10.51,2.12,17.29s.76,12.94.77,17.4c0,2.23,0,4-.06,5.28,0,.58-.05,1-.06,1.44a1.73,1.73,0,0,1-.06.5,2.06,2.06,0,0,1,0-.5c0-.39,0-.87,0-1.44,0-1.32-.06-3.11-.1-5.27-.11-4.45-.36-10.6-.92-17.37s-1.33-12.87-2-17.28c-.31-2.14-.57-3.9-.76-5.22-.08-.56-.15-1-.2-1.42A1.87,1.87,0,0,1,246.74,187.06Z" style="fill: rgb(38, 50, 56); transform-origin: 248.87px 211.56px;" id="elummtz4znq0r" class="animable"></path><path d="M249.47,221.7a36.89,36.89,0,0,0-7.77.1,37,37,0,0,0-7.44,2.24,7.37,7.37,0,0,1,2-1.16,20.09,20.09,0,0,1,5.36-1.59,20.45,20.45,0,0,1,5.59-.1A7.55,7.55,0,0,1,249.47,221.7Z" style="fill: rgb(38, 50, 56); transform-origin: 241.865px 222.542px;" id="el0uf7sm1bs68k" class="animable"></path><path d="M247.09,200.08a23.9,23.9,0,0,0-14.21,1.31,6.29,6.29,0,0,1,1.89-1,17.87,17.87,0,0,1,5.06-1.24,18.07,18.07,0,0,1,5.21.29A6.6,6.6,0,0,1,247.09,200.08Z" style="fill: rgb(38, 50, 56); transform-origin: 239.985px 200.234px;" id="el1icg7eh3ytz" class="animable"></path><path d="M240.48,180.36c0,.15-2.46.73-5.22,2.19s-4.67,3.16-4.78,3a13.25,13.25,0,0,1,4.54-3.5A13.1,13.1,0,0,1,240.48,180.36Z" style="fill: rgb(38, 50, 56); transform-origin: 235.48px 182.96px;" id="elwohga2vxw5" class="animable"></path><path d="M222.5,160.9a36,36,0,0,0-3.42,2.37,41.44,41.44,0,0,0-2.81,3.08,9.13,9.13,0,0,1,6.23-5.45Z" style="fill: rgb(38, 50, 56); transform-origin: 219.385px 163.625px;" id="el62xbyug9dfn" class="animable"></path><path d="M208.31,145.15a35.94,35.94,0,0,0-3.13,2.64,32.56,32.56,0,0,0-2.37,3.34,6.89,6.89,0,0,1,2-3.69A7,7,0,0,1,208.31,145.15Z" style="fill: rgb(38, 50, 56); transform-origin: 205.56px 148.14px;" id="elkuoh5oz58gr" class="animable"></path><path d="M194.41,132.34a19.14,19.14,0,0,1-2.18,0,16,16,0,0,0-9.66,3.28,19.6,19.6,0,0,1-1.71,1.36,5.78,5.78,0,0,1,1.47-1.64,14,14,0,0,1,4.63-2.64,14.21,14.21,0,0,1,5.28-.73A6,6,0,0,1,194.41,132.34Z" style="fill: rgb(38, 50, 56); transform-origin: 187.635px 134.466px;" id="eljbdzieuaiml" class="animable"></path><path d="M188.81,112.06a18,18,0,0,0-4.8-1.34,18.4,18.4,0,0,0-4.95.51c0-.06.47-.37,1.36-.65a9.59,9.59,0,0,1,3.64-.38,9.41,9.41,0,0,1,3.51,1A3.25,3.25,0,0,1,188.81,112.06Z" style="fill: rgb(38, 50, 56); transform-origin: 183.935px 111.111px;" id="elrr4ct914me" class="animable"></path><g id="elsachnf9bf6h"><g style="opacity: 0.3; transform-origin: 340.784px 265.772px;" class="animable" id="elytghkr6hz5"><path d="M354.22,274.93a2.71,2.71,0,0,1,.84-2A20.6,20.6,0,0,0,358.48,255l-36-17.54c-.94,5.19,3,10,7.12,13.25a58.85,58.85,0,0,0,12.25,7.58c2.26,1,4.88,2.27,5.42,4.69.92,4-4.7,7.08-4.47,11.21.12,2.17,1.82,3.86,2.82,5.78,1.75,3.38,1.3,7.42,1.42,11.23,0,1.36.78,3.19,2.09,2.84.89-.24,1.17-1.37,1.18-2.29,0-1.62-.28-3.24-.2-4.86a5.57,5.57,0,0,1,1.9-4.3c1.14-.85,2.65-1,3.94-1.59s2.38-2.2,1.62-3.39S354.47,276.41,354.22,274.93Z" id="elnmbg2g0jg7" class="animable" style="transform-origin: 340.784px 265.772px;"></path></g></g><path d="M349.55,196.65c3-3.43,11.83-6.74,12.69-6.51,0,0-1.55,6.26-2.16,9.33a1.79,1.79,0,0,1-1,1.29,3.57,3.57,0,0,1-2.37-.12,20.31,20.31,0,0,1-7.18-4" style="fill: #7E57C2; transform-origin: 355.885px 195.518px;" id="elc8s6cl6ca2" class="animable"></path><g id="el13am8c5gop8g"><g style="opacity: 0.3; transform-origin: 355.885px 195.518px;" class="animable" id="elgadl3xg2v9m"><path d="M349.55,196.65c3-3.43,11.83-6.74,12.69-6.51,0,0-1.55,6.26-2.16,9.33a1.79,1.79,0,0,1-1,1.29,3.57,3.57,0,0,1-2.37-.12,20.31,20.31,0,0,1-7.18-4" id="el392gdlvvxsf" class="animable" style="transform-origin: 355.885px 195.518px;"></path></g></g><path d="M359.65,202.05c3-3.43,11.82-6.75,12.68-6.52,0,0-1.54,6.27-2.16,9.34a1.79,1.79,0,0,1-1,1.29,3.58,3.58,0,0,1-2.37-.13,20.09,20.09,0,0,1-7.17-4" style="fill: #7E57C2; transform-origin: 365.98px 200.911px;" id="elh9exf7olqgu" class="animable"></path><g id="el3md8neo1gf3"><g style="opacity: 0.3; transform-origin: 365.98px 200.911px;" class="animable" id="eljjzquwhtrnq"><path d="M359.65,202.05c3-3.43,11.82-6.75,12.68-6.52,0,0-1.54,6.27-2.16,9.34a1.79,1.79,0,0,1-1,1.29,3.58,3.58,0,0,1-2.37-.13,20.09,20.09,0,0,1-7.17-4" id="elxpc50r9r8t" class="animable" style="transform-origin: 365.98px 200.911px;"></path></g></g><path d="M369.87,209.76c3-3.43,11.82-6.75,12.68-6.52,0,0-1.54,6.27-2.16,9.34a1.79,1.79,0,0,1-1,1.29,3.65,3.65,0,0,1-2.37-.13,20.09,20.09,0,0,1-7.17-4" style="fill: #7E57C2; transform-origin: 376.2px 208.619px;" id="eljfquqhduavf" class="animable"></path><g id="elxpedkgiaydm"><g style="opacity: 0.3; transform-origin: 376.2px 208.619px;" class="animable" id="elk3ogpr0v6wf"><path d="M369.87,209.76c3-3.43,11.82-6.75,12.68-6.52,0,0-1.54,6.27-2.16,9.34a1.79,1.79,0,0,1-1,1.29,3.65,3.65,0,0,1-2.37-.13,20.09,20.09,0,0,1-7.17-4" id="eljty56hsw4qc" class="animable" style="transform-origin: 376.2px 208.619px;"></path></g></g><path d="M378.6,217.34c3.49-2.92,12.74-4.79,13.56-4.43,0,0-2.52,5.94-3.62,8.88a1.77,1.77,0,0,1-1.17,1.12,3.66,3.66,0,0,1-2.32-.5,20.18,20.18,0,0,1-6.45-5.07" style="fill: #7E57C2; transform-origin: 385.38px 217.901px;" id="elqjid2idfvnh" class="animable"></path><g id="elxkr28ora40e"><g style="opacity: 0.3; transform-origin: 385.38px 217.901px;" class="animable" id="el6651ce5wy15"><path d="M378.6,217.34c3.49-2.92,12.74-4.79,13.56-4.43,0,0-2.52,5.94-3.62,8.88a1.77,1.77,0,0,1-1.17,1.12,3.66,3.66,0,0,1-2.32-.5,20.18,20.18,0,0,1-6.45-5.07" id="elbai1so1qito" class="animable" style="transform-origin: 385.38px 217.901px;"></path></g></g><path d="M385.89,224.77c4.27-1.56,13.61-.18,14.26.44,0,0-4.39,4.73-6.41,7.12a1.82,1.82,0,0,1-1.48.66,3.6,3.6,0,0,1-2-1.26,20.31,20.31,0,0,1-4.35-7" style="fill: #7E57C2; transform-origin: 393.02px 228.522px;" id="el6tm5c0i7o6c" class="animable"></path><g id="el5h6joitg155"><g style="opacity: 0.3; transform-origin: 393.02px 228.522px;" class="animable" id="el7xy8azvdczp"><path d="M385.89,224.77c4.27-1.56,13.61-.18,14.26.44,0,0-4.39,4.73-6.41,7.12a1.82,1.82,0,0,1-1.48.66,3.6,3.6,0,0,1-2-1.26,20.31,20.31,0,0,1-4.35-7" id="el4wvfdq5nk7" class="animable" style="transform-origin: 393.02px 228.522px;"></path></g></g><path d="M391.46,234.27c4.52-.54,13.29,2.94,13.78,3.69,0,0-5.35,3.6-7.87,5.46a1.75,1.75,0,0,1-1.6.3A3.65,3.65,0,0,1,394.1,242a20.26,20.26,0,0,1-2.64-7.77" style="fill: #7E57C2; transform-origin: 398.35px 239.005px;" id="elwhga75wz1q" class="animable"></path><g id="elo2sfwc0u13"><g style="opacity: 0.3; transform-origin: 398.35px 239.005px;" class="animable" id="elql8g5ixkush"><path d="M391.46,234.27c4.52-.54,13.29,2.94,13.78,3.69,0,0-5.35,3.6-7.87,5.46a1.75,1.75,0,0,1-1.6.3A3.65,3.65,0,0,1,394.1,242a20.26,20.26,0,0,1-2.64-7.77" id="elrq7ct6p46vc" class="animable" style="transform-origin: 398.35px 239.005px;"></path></g></g><path d="M394.68,245.21c4.53.47,12.31,5.81,12.62,6.65,0,0-6,2.32-8.89,3.58a1.78,1.78,0,0,1-1.62-.06,3.55,3.55,0,0,1-1.25-2,20.21,20.21,0,0,1-.86-8.16" style="fill: #7E57C2; transform-origin: 400.94px 250.408px;" id="el7abiba6bga6" class="animable"></path><g id="ellt0lketq4kh"><g style="opacity: 0.3; transform-origin: 400.94px 250.408px;" class="animable" id="elwvxn9xf1afh"><path d="M394.68,245.21c4.53.47,12.31,5.81,12.62,6.65,0,0-6,2.32-8.89,3.58a1.78,1.78,0,0,1-1.62-.06,3.55,3.55,0,0,1-1.25-2,20.21,20.21,0,0,1-.86-8.16" id="el0ft4ucqtp3lb" class="animable" style="transform-origin: 400.94px 250.408px;"></path></g></g><path d="M395.36,259.74c4.53.48,12.31,5.81,12.62,6.65,0,0-6,2.33-8.89,3.59a1.78,1.78,0,0,1-1.62-.06,3.63,3.63,0,0,1-1.25-2,20.19,20.19,0,0,1-.86-8.16" style="fill: #7E57C2; transform-origin: 401.62px 264.943px;" id="elm5ink4u205" class="animable"></path><g id="eluo1a94z965q"><g style="opacity: 0.3; transform-origin: 401.62px 264.943px;" class="animable" id="elhk9vn7qdv3"><path d="M395.36,259.74c4.53.48,12.31,5.81,12.62,6.65,0,0-6,2.33-8.89,3.59a1.78,1.78,0,0,1-1.62-.06,3.63,3.63,0,0,1-1.25-2,20.19,20.19,0,0,1-.86-8.16" id="elhg1q2y9ld3q" class="animable" style="transform-origin: 401.62px 264.943px;"></path></g></g><path d="M396.31,271.24c4.26,1.6,10.45,8.72,10.54,9.61,0,0-6.41.74-9.51,1.24a1.78,1.78,0,0,1-1.55-.47,3.7,3.7,0,0,1-.71-2.27,20.22,20.22,0,0,1,1.23-8.11" style="fill: #7E57C2; transform-origin: 400.95px 276.679px;" id="el2fqzt5bk367" class="animable"></path><g id="eldbe86p8f75j"><g style="opacity: 0.3; transform-origin: 400.95px 276.679px;" class="animable" id="elq988wlcnecq"><path d="M396.31,271.24c4.26,1.6,10.45,8.72,10.54,9.61,0,0-6.41.74-9.51,1.24a1.78,1.78,0,0,1-1.55-.47,3.7,3.7,0,0,1-.71-2.27,20.22,20.22,0,0,1,1.23-8.11" id="el4c9bgz0hd0g" class="animable" style="transform-origin: 400.95px 276.679px;"></path></g></g><path d="M394.62,284c4.26,1.59,10.45,8.72,10.54,9.61,0,0-6.42.74-9.51,1.23a1.78,1.78,0,0,1-1.55-.46,3.62,3.62,0,0,1-.71-2.27,20.19,20.19,0,0,1,1.23-8.11" style="fill: #7E57C2; transform-origin: 399.26px 289.435px;" id="elndmaljz7xab" class="animable"></path><g id="elzudyunjab"><g style="opacity: 0.3; transform-origin: 399.26px 289.435px;" class="animable" id="elqepp6lxprj"><path d="M394.62,284c4.26,1.59,10.45,8.72,10.54,9.61,0,0-6.42.74-9.51,1.23a1.78,1.78,0,0,1-1.55-.46,3.62,3.62,0,0,1-.71-2.27,20.19,20.19,0,0,1,1.23-8.11" id="elpi28qraxf2a" class="animable" style="transform-origin: 399.26px 289.435px;"></path></g></g><path d="M393.22,294.33c3.68,2.68,7.75,11.19,7.6,12.08,0,0-6.38-1-9.49-1.35a1.81,1.81,0,0,1-1.38-.86,3.65,3.65,0,0,1-.07-2.38,20.27,20.27,0,0,1,3.34-7.49" style="fill: #7E57C2; transform-origin: 395.269px 300.37px;" id="elkctp5unnph" class="animable"></path><g id="ellfnspglo44p"><g style="opacity: 0.3; transform-origin: 395.269px 300.37px;" class="animable" id="elvqtp2pgyq5"><path d="M393.22,294.33c3.68,2.68,7.75,11.19,7.6,12.08,0,0-6.38-1-9.49-1.35a1.81,1.81,0,0,1-1.38-.86,3.65,3.65,0,0,1-.07-2.38,20.27,20.27,0,0,1,3.34-7.49" id="elycc3dukqtma" class="animable" style="transform-origin: 395.269px 300.37px;"></path></g></g><path d="M389.69,306.15c3.68,2.68,7.75,11.2,7.6,12.08,0,0-6.38-1-9.49-1.35a1.81,1.81,0,0,1-1.38-.86,3.65,3.65,0,0,1-.07-2.38,20.27,20.27,0,0,1,3.34-7.49" style="fill: #7E57C2; transform-origin: 391.739px 312.19px;" id="eln2utfx9z9xj" class="animable"></path><g id="elkge5cvixg3"><g style="opacity: 0.3; transform-origin: 391.739px 312.19px;" class="animable" id="eld4lx8c46q3n"><path d="M389.69,306.15c3.68,2.68,7.75,11.2,7.6,12.08,0,0-6.38-1-9.49-1.35a1.81,1.81,0,0,1-1.38-.86,3.65,3.65,0,0,1-.07-2.38,20.27,20.27,0,0,1,3.34-7.49" id="elzlc3x7ci87t" class="animable" style="transform-origin: 391.739px 312.19px;"></path></g></g><path d="M386.12,317.67c2.57,3.76,3.54,13.14,3.1,13.93,0,0-5.67-3.08-8.49-4.45a1.8,1.8,0,0,1-1-1.28,3.62,3.62,0,0,1,.72-2.26,20.28,20.28,0,0,1,5.67-5.94" style="fill: #7E57C2; transform-origin: 384.526px 324.635px;" id="eli1q3wmntzzg" class="animable"></path><g id="elen7j94lkdo"><g style="opacity: 0.3; transform-origin: 384.526px 324.635px;" class="animable" id="elbyoyqmlrqn9"><path d="M386.12,317.67c2.57,3.76,3.54,13.14,3.1,13.93,0,0-5.67-3.08-8.49-4.45a1.8,1.8,0,0,1-1-1.28,3.62,3.62,0,0,1,.72-2.26,20.28,20.28,0,0,1,5.67-5.94" id="el6e0iklx4j6w" class="animable" style="transform-origin: 384.526px 324.635px;"></path></g></g><path d="M378.5,327.79c2.57,3.75,3.55,13.14,3.11,13.92,0,0-5.68-3.08-8.49-4.45a1.79,1.79,0,0,1-1-1.27,3.64,3.64,0,0,1,.73-2.27,20,20,0,0,1,5.66-5.93" style="fill: #7E57C2; transform-origin: 376.915px 334.75px;" id="elclg3u7zr0he" class="animable"></path><g id="elclrfpnb1bo5"><g style="opacity: 0.3; transform-origin: 376.915px 334.75px;" class="animable" id="ele08hqna8278"><path d="M378.5,327.79c2.57,3.75,3.55,13.14,3.11,13.92,0,0-5.68-3.08-8.49-4.45a1.79,1.79,0,0,1-1-1.27,3.64,3.64,0,0,1,.73-2.27,20,20,0,0,1,5.66-5.93" id="el0whvb0dhxfad" class="animable" style="transform-origin: 376.915px 334.75px;"></path></g></g><path d="M364.12,256.76c1.12-4.57-3.2-7.57-3.2-7.57s5.34,5,11.55,1.55a16.91,16.91,0,0,0,7.84-9.22s-.86-12.41-10.25-14.13c0,0-13.45-5-24.39-5.17s-24,2.84-25,9.65,5.43,14.31,10,15.77S351,259.94,351,259.94" style="fill: #7E57C2; transform-origin: 350.438px 241.077px;" id="elb1i192jwdji" class="animable"></path><path d="M347.37,194.55s28.27,6,43.2,31.7,4.84,69.54,2.09,78.71c-5.38,18-27.94,45.77-27.94,45.77l-1.08-31s3.63-5.22,6.92-17.86,5.63-33.44-3.61-44.85a196.12,196.12,0,0,0-19.38-20.44Z" style="fill: #7E57C2; transform-origin: 372.959px 272.64px;" id="elhjle25ndulf" class="animable"></path><path d="M350.91,257.88l-7.85,15.89s-3.11,1.78-4.7,1.54a4,4,0,0,0-4.3,2.86c-.76,2.24,1,5.39,1,5.39l1.2-3.27s2.06-.3,2-1.21,4.36-.49,4.36-.49-4.48,4-4.59,8.63,1.17,5.59,1.17,5.59l.83-4.37a2.18,2.18,0,0,0,1.17-1.71,5.85,5.85,0,0,1,3.48-4.43c2.23-.79,1.88-.61,1.88-.61s-.24,6.62,0,7.78,4.24,4.86,4.24,4.86l-1.53-4.8a3.12,3.12,0,0,0,.76-1.76,55.6,55.6,0,0,1,.18-6.14c.23-1.4,2.82-3.65,3.71-4.31a1.86,1.86,0,0,1,1.89-.14l1,2.44,1.07-3.32s.33-1.73-1.14-2.09a5.38,5.38,0,0,0-2.46-.11l-1.71-.54s-.59.35.41-2.14,10.1-11.42,10.87-14.65" style="fill: #7E57C2; transform-origin: 348.86px 275.55px;" id="elrg8uqhkmxx" class="animable"></path><path d="M363.88,254.22c-.06,0-.24-.58-.78-1.53a10.85,10.85,0,0,0-3.11-3.4,30.41,30.41,0,0,0-6.1-3.25c-1.2-.52-2.48-1-3.78-1.68a9.61,9.61,0,0,1-1.86-1.22,18.81,18.81,0,0,1-1.62-1.6,21.82,21.82,0,0,0-3.12-3,15.76,15.76,0,0,0-3.51-2,18,18,0,0,0-6.72-1.34,22.71,22.71,0,0,0-4.64.45c-1.08.22-1.67.38-1.68.34a1.75,1.75,0,0,1,.41-.17c.28-.1.69-.23,1.23-.37a20.37,20.37,0,0,1,4.68-.62,17.59,17.59,0,0,1,6.9,1.27,15.93,15.93,0,0,1,3.64,2,21.82,21.82,0,0,1,3.2,3.11,11,11,0,0,0,3.33,2.72c1.25.64,2.53,1.15,3.73,1.69a29,29,0,0,1,6.13,3.4,10.43,10.43,0,0,1,3.07,3.59,5.71,5.71,0,0,1,.48,1.19A2.13,2.13,0,0,1,363.88,254.22Z" style="fill: rgb(38, 50, 56); transform-origin: 345.42px 244.523px;" id="eloqcf1zfq2g" class="animable"></path><g id="el9zuw1rnmh0k"><g style="opacity: 0.2; transform-origin: 389.91px 248.18px;" class="animable" id="eltw2upmzk5a"><polygon points="392.58 243.78 394.59 248.49 389.41 254.14 385.23 251.01 386.63 243.13 389.41 242.22 392.58 243.78" id="el1bxzuvvclu9" class="animable" style="transform-origin: 389.91px 248.18px;"></polygon></g></g><g id="el1yvonokbby6"><g style="opacity: 0.2; transform-origin: 392.982px 256.785px;" class="animable" id="el5t3dyneduyp"><path d="M394,253s-3.9,4.06-3.71,4.16,1.71,3.41,1.71,3.41l3.68-1.34Z" id="el5c22yolnhki" class="animable" style="transform-origin: 392.982px 256.785px;"></path></g></g><g id="elygqksoca0o"><g style="opacity: 0.2; transform-origin: 385.38px 258.01px;" class="animable" id="elqnh759an87l"><path d="M388.82,255.56c-.24-.2-3.5-1.58-3.5-1.58s-3.39,5-3.38,5,4.2,3,4.33,3.06a15.15,15.15,0,0,0,1.73-1.65Z" id="elhag4ze7ckqs" class="animable" style="transform-origin: 385.38px 258.01px;"></path></g></g><g id="elrn3cex63ss"><g style="opacity: 0.2; transform-origin: 389.325px 265.7px;" class="animable" id="elbm7agbmmjpg"><polygon points="389.31 261.25 392.51 265.21 391.7 268.4 388.48 270.15 386.14 265.89 389.31 261.25" id="elyh3b74xlc8" class="animable" style="transform-origin: 389.325px 265.7px;"></polygon></g></g><g id="el5cjlnzevhva"><g style="opacity: 0.2; transform-origin: 333.295px 227.025px;" class="animable" id="elx4209jpdo8g"><polygon points="331.31 228.02 333.59 229.34 335.28 227.12 333.89 224.71 331.31 225.26 331.31 228.02" id="elutobnfdth7a" class="animable" style="transform-origin: 333.295px 227.025px;"></polygon></g></g><g id="elesdzitxhymq"><g style="opacity: 0.2; transform-origin: 326.043px 230.78px;" class="animable" id="elcpei6d1ckma"><path d="M321.44,231.59l4,4.07,4.55-2.19s.73-4.6.65-4.85-2.15-2.72-2.15-2.72l-5.12,2.81Z" id="elhraj8cgntma" class="animable" style="transform-origin: 326.043px 230.78px;"></path></g></g><path d="M374.93,246.16a5.53,5.53,0,0,1-1.38,1.67,12.82,12.82,0,0,1-4.48,2.69,13.05,13.05,0,0,1-5.19.7,5.33,5.33,0,0,1-2.11-.46c0-.08.82.07,2.13.09a15,15,0,0,0,5-.82,14.81,14.81,0,0,0,4.41-2.47C374.33,246.73,374.86,246.11,374.93,246.16Z" style="fill: rgb(38, 50, 56); transform-origin: 368.35px 248.704px;" id="eldmr8n9r64l" class="animable"></path><path d="M363.92,225.42a5.52,5.52,0,0,1-1.24-.26c-.78-.21-1.92-.5-3.33-.83a75.72,75.72,0,0,0-11.15-1.79,51.68,51.68,0,0,0-11.26.31c-2.86.42-4.59.92-4.62.82a6.25,6.25,0,0,1,1.2-.41,27.76,27.76,0,0,1,3.36-.77,45.83,45.83,0,0,1,11.36-.47,62.41,62.41,0,0,1,11.2,2c1.4.37,2.53.72,3.3,1A6.89,6.89,0,0,1,363.92,225.42Z" style="fill: rgb(38, 50, 56); transform-origin: 348.12px 223.641px;" id="el6qq9ud94uj2" class="animable"></path><g id="elm0fqw60asn9"><g style="opacity: 0.3; transform-origin: 351.926px 245.08px;" class="animable" id="elmi9oemmodvm"><path d="M361.1,247.08c-2.5-1.76-5.85-1.72-8.61-3-2.31-1.12-4.05-3.11-5.91-4.87a10.72,10.72,0,0,0-6.81-3.16c2.66,1.3,5.89,3.3,7.51,5.78l2,1.88c1,.45,2.16,1,3.17,1.47,2.28,1,4.74,1.76,6.79,3.22a13,13,0,0,1,4.74,5.71A7.17,7.17,0,0,0,361.1,247.08Z" id="elpfr1zhs937o" class="animable" style="transform-origin: 351.926px 245.08px;"></path></g></g><g id="elb0pm5x1w3nc"><g style="opacity: 0.3; transform-origin: 355.44px 222.43px;" class="animable" id="el4hlz0ctzkep"><path d="M356.23,220.59a38,38,0,0,0-8.71-1.16l0,3c5.43.36,10.77,1,15.84,3A12.79,12.79,0,0,0,356.23,220.59Z" id="elojo85lpctxg" class="animable" style="transform-origin: 355.44px 222.43px;"></path></g></g><path d="M345,276.67c0,.15-.77.19-1.48.72s-1,1.22-1.15,1.18-.05-1,.84-1.6S345,276.54,345,276.67Z" style="fill: rgb(38, 50, 56); transform-origin: 343.656px 277.558px;" id="elzgw4hq58thk" class="animable"></path><path d="M347.67,277.59c.1.11-.6.77-.87,1.87a14.21,14.21,0,0,0-.13,2.05c-.11.09-.7-.9-.37-2.18S347.61,277.46,347.67,277.59Z" style="fill: rgb(38, 50, 56); transform-origin: 346.94px 279.544px;" id="elwvlau3joctg" class="animable"></path><path d="M338.81,278.57c-.15,0-.16-.69-.42-1.43s-.63-1.3-.52-1.4.73.35,1,1.23S338.94,278.6,338.81,278.57Z" style="fill: rgb(38, 50, 56); transform-origin: 338.427px 277.149px;" id="elwednx4w0rgi" class="animable"></path><path d="M343.28,276.68c-.14.05-.47-.45-.91-1s-.83-1-.74-1.13.67.18,1.16.81S343.41,276.63,343.28,276.68Z" style="fill: rgb(38, 50, 56); transform-origin: 342.472px 275.602px;" id="elznyoe7mvw3f" class="animable"></path><path d="M341.62,284.32c-.13.06-.51-.43-1.18-.69s-1.28-.2-1.33-.34.66-.5,1.53-.15S341.76,284.28,341.62,284.32Z" style="fill: rgb(38, 50, 56); transform-origin: 340.382px 283.658px;" id="el0vs1txoq51a" class="animable"></path><path d="M345.16,281.63c-.14.05-.55-.76-1.42-1.39s-1.76-.8-1.74-.95,1.05-.22,2.05.53S345.29,281.61,345.16,281.63Z" style="fill: rgb(38, 50, 56); transform-origin: 343.596px 280.413px;" id="el8a0fndnfs3v" class="animable"></path><path d="M349.63,286.18c-.05.14-.72,0-1.53.12s-1.43.4-1.52.28.5-.67,1.45-.79S349.69,286.06,349.63,286.18Z" style="fill: rgb(38, 50, 56); transform-origin: 348.102px 286.188px;" id="elb3pfy9xogma" class="animable"></path><path d="M350.45,280.61a11.35,11.35,0,0,0-2-.27,12.39,12.39,0,0,0-2,.53c0-.05.09-.27.43-.52a2.9,2.9,0,0,1,1.52-.53,3,3,0,0,1,1.58.32C350.32,280.35,350.49,280.55,350.45,280.61Z" style="fill: rgb(38, 50, 56); transform-origin: 348.453px 280.341px;" id="ele51lhwwc9sf" class="animable"></path><path d="M352.2,272.93c0,.15-1.85-.32-4.11-.38s-4.1.28-4.13.13a8.48,8.48,0,0,1,4.14-.65A8.62,8.62,0,0,1,352.2,272.93Z" style="fill: rgb(38, 50, 56); transform-origin: 348.08px 272.476px;" id="elwulbkxx4rr" class="animable"></path><path d="M358.81,262a8.52,8.52,0,0,0-8.59-2.21c0-.06.43-.36,1.29-.6a6.84,6.84,0,0,1,6.46,1.66C358.61,261.46,358.86,262,358.81,262Z" style="fill: rgb(38, 50, 56); transform-origin: 354.518px 260.482px;" id="elzh3ugzjfera" class="animable"></path><path d="M354.52,253.91a31.73,31.73,0,0,0-2.67,2.74,35.76,35.76,0,0,0-1.92,3.31,6.24,6.24,0,0,1,1.51-3.62A6.15,6.15,0,0,1,354.52,253.91Z" style="fill: rgb(38, 50, 56); transform-origin: 352.225px 256.935px;" id="elczajpnxlxp4" class="animable"></path><path d="M345.21,239.94A15.39,15.39,0,0,0,338,250.41a4.71,4.71,0,0,1,.15-2,12.34,12.34,0,0,1,5.26-7.67A4.66,4.66,0,0,1,345.21,239.94Z" style="fill: rgb(38, 50, 56); transform-origin: 341.582px 245.175px;" id="elxn4vt9zrwmm" class="animable"></path><path d="M337.91,234.79a27.68,27.68,0,0,0-.75-6.06,28.08,28.08,0,0,0-2.53-5.56,13.34,13.34,0,0,1,3.28,11.62Z" style="fill: rgb(38, 50, 56); transform-origin: 336.396px 228.98px;" id="el1qvcul5rhef" class="animable"></path><path d="M356.46,225a2.51,2.51,0,0,1,.24.79A14.8,14.8,0,0,1,357,228a21.46,21.46,0,0,1-.68,7.38,21.71,21.71,0,0,1-3.11,6.73,15.18,15.18,0,0,1-1.41,1.76c-.36.39-.57.59-.6.57s.7-.95,1.7-2.53a24.32,24.32,0,0,0,3.74-13.89C356.59,226.18,356.37,225,356.46,225Z" style="fill: rgb(38, 50, 56); transform-origin: 354.135px 234.721px;" id="elrkmwlfhozh" class="animable"></path><g id="el2whwioxn68"><g style="opacity: 0.3; transform-origin: 371.807px 297.065px;" class="animable" id="elxcdui1i0lc"><path d="M364.33,334.39s13.38-22.57,15.42-40.06-10.57-34.59-10.57-34.59,7.59,14.69,2.65,36.25c-4.49,19.64-8.19,23.79-8.19,23.79Z" id="el4l95jlkwyr" class="animable" style="transform-origin: 371.807px 297.065px;"></path></g></g><path d="M380,330.18c-.12.1-1.9-1.94-4.4-4.14s-4.74-3.73-4.65-3.86a19.75,19.75,0,0,1,5,3.47A19.1,19.1,0,0,1,380,330.18Z" style="fill: rgb(38, 50, 56); transform-origin: 375.474px 326.182px;" id="elpzz6gd2527s" class="animable"></path><path d="M388.08,315.75a36.8,36.8,0,0,0-4.55-5.37,37.5,37.5,0,0,0-5.81-4,6.65,6.65,0,0,1,2,.74,18.83,18.83,0,0,1,4.19,2.86,18.41,18.41,0,0,1,3.27,3.88A5.89,5.89,0,0,1,388.08,315.75Z" style="fill: rgb(38, 50, 56); transform-origin: 382.9px 311.065px;" id="elibzsr3tsb5" class="animable"></path><path d="M395.47,296.2a14.38,14.38,0,0,1-2.22-.84c-1.36-.55-3.24-1.26-5.37-1.92s-4.08-1.13-5.51-1.45a11.75,11.75,0,0,1-2.3-.57,9.89,9.89,0,0,1,2.37.21,40.61,40.61,0,0,1,5.6,1.31A42.7,42.7,0,0,1,393.4,295,9.11,9.11,0,0,1,395.47,296.2Z" style="fill: rgb(38, 50, 56); transform-origin: 387.77px 293.807px;" id="el7s3zgfry7em" class="animable"></path><path d="M398.2,279.2a20.52,20.52,0,0,1-2.93-.55c-1.79-.36-4.29-.81-7.07-1.13s-5.31-.46-7.14-.52a20.38,20.38,0,0,1-3-.14,14.23,14.23,0,0,1,3-.22,55,55,0,0,1,14.3,1.66A13.59,13.59,0,0,1,398.2,279.2Z" style="fill: rgb(38, 50, 56); transform-origin: 388.13px 277.916px;" id="eli6trf3wkhz" class="animable"></path><polygon points="120.74 478.23 139.92 451.65 172.19 443.14 195.8 446.1 210.04 435.32 229.55 435.32 229.55 478.23 120.74 478.23" style="fill: rgb(235, 235, 235); transform-origin: 175.145px 456.775px;" id="elie6odjz6cj9" class="animable"></polygon><polygon points="253.08 478.23 295.77 478.23 290.87 443.14 322.85 431.35 335.46 410.86 290.06 412.74 253.08 430.26 236.22 448.18 240.73 459.55 253.08 478.23" style="fill: rgb(250, 250, 250); transform-origin: 285.84px 444.545px;" id="el8nkih8r4jks" class="animable"></polygon><path d="M275.33,457.19c0,.14-6.57.26-14.69.26s-14.69-.12-14.69-.26,6.58-.26,14.69-.26S275.33,457.05,275.33,457.19Z" id="elx95jdmxemud" class="animable" style="transform-origin: 260.64px 457.19px;"></path><path d="M276.94,463.2c0,.14-6.58.26-14.7.26s-14.69-.12-14.69-.26,6.58-.26,14.69-.26S276.94,463.06,276.94,463.2Z" id="elfvly2as3b4" class="animable" style="transform-origin: 262.245px 463.2px;"></path><path d="M282.47,468.91c0,.15-6.58.26-14.7.26s-14.69-.11-14.69-.26,6.58-.26,14.69-.26S282.47,468.77,282.47,468.91Z" id="elxzjhrqt6l0e" class="animable" style="transform-origin: 267.775px 468.91px;"></path><path d="M285.72,473.91c0,.14-6.58.26-14.69.26s-14.7-.12-14.7-.26,6.58-.26,14.7-.26S285.72,473.76,285.72,473.91Z" id="el7xz45vet3kn" class="animable" style="transform-origin: 271.025px 473.91px;"></path><polygon points="179.76 478.23 184.42 467 210.23 456.77 207.69 478.23 179.76 478.23" style="fill: rgb(224, 224, 224); transform-origin: 194.995px 467.5px;" id="elva87nowqkv" class="animable"></polygon><path d="M203.42,478.23s5.66-27.07,6.46-28.13,7.67-7.14,7.67-7.14,6.61-16.14,7.4-16.93,10.91-1.59,10.91-1.59l7.89-7.4h6.45l3-2.12h12.67l6.84,2.91L283,408h8.36l1.32,4.7-20.75,9.59-6.13,4.32-7.25,3-5.4,4.63-9.88,7.24-1.71,4.52-4.23.61,2.26,3.26,4.08,2,2.6,4.57,5.34,3.17,6,18.59Z" style="fill: rgb(224, 224, 224); transform-origin: 248.05px 443.115px;" id="elcb3fmgh73f5" class="animable"></path><path d="M271.76,446.1c0,.15-6.58.26-14.7.26s-14.69-.11-14.69-.26,6.58-.26,14.69-.26S271.76,446,271.76,446.1Z" id="el4v1m02banm4" class="animable" style="transform-origin: 257.065px 446.1px;"></path><path d="M272.78,451.65c0,.14-6.58.26-14.69.26s-14.7-.12-14.7-.26,6.58-.26,14.7-.26S272.78,451.5,272.78,451.65Z" id="elgp2w0okq5a" class="animable" style="transform-origin: 258.085px 451.65px;"></path><path d="M272.45,441c0,.15-6.25.27-14,.27s-14-.12-14-.27,6.25-.26,14-.26S272.45,440.83,272.45,441Z" id="el6ru1hxbfoqh" class="animable" style="transform-origin: 258.45px 441.005px;"></path><path d="M282.47,436.16c0,.15-7,.26-15.57.26s-15.56-.11-15.56-.26,7-.26,15.56-.26S282.47,436,282.47,436.16Z" id="el95gfs5ffjja" class="animable" style="transform-origin: 266.905px 436.16px;"></path><path d="M289,431.35c0,.14-7.08.26-15.81.26s-15.82-.12-15.82-.26,7.08-.26,15.82-.26S289,431.21,289,431.35Z" id="els7arfpjwig" class="animable" style="transform-origin: 273.185px 431.35px;"></path><path d="M300,427c0,.15-7.59.27-16.94.27s-16.94-.12-16.94-.27,7.58-.26,16.94-.26S300,426.88,300,427Z" id="elo6kxzbcuv2g" class="animable" style="transform-origin: 283.06px 427.005px;"></path><path d="M317.56,422.46c0,.14-10.13.26-22.63.26s-22.64-.12-22.64-.26,10.13-.26,22.64-.26S317.56,422.31,317.56,422.46Z" id="eloc60vof2jod" class="animable" style="transform-origin: 294.925px 422.46px;"></path><path d="M327.81,417.6c0,.14-10.13.26-22.63.26s-22.64-.12-22.64-.26,10.13-.26,22.64-.26S327.81,417.45,327.81,417.6Z" id="el4ynl6alwozr" class="animable" style="transform-origin: 305.175px 417.6px;"></path><path d="M276.34,464.17l-6-23.22h8.4l9-9.51L297,430l6.63-4.65L315.77,427s3.84-8.89,4.65-9.1,11.12-7.08,11.12-7.08l6.68-8.08h6.26l20-.81,4.45-8.09h5.86l7.08,10.92,17.19,7.89L425,458.34l17.54,19.89H288.23Z" style="fill: rgb(224, 224, 224); transform-origin: 356.44px 436.035px;" id="elutk1qjw3ju8" class="animable"></path><path d="M256.17,473.91a5.49,5.49,0,0,1-.47-.91l-1.2-2.61-4.11-9.25.18.14-10-1.5-.83-.12-.08,0,0,0-9.32-7.78.13,0-8.08-.74-2.25-.25a3.82,3.82,0,0,1-.79-.13,4.21,4.21,0,0,1,.81,0l2.25.12,8.09.57h.07l.05.05,9.37,7.72-.12-.06.83.13,10,1.54.13,0,.05.12c1.58,3.77,2.94,7,3.93,9.32l1.08,2.67A4.53,4.53,0,0,1,256.17,473.91Z" style="fill: rgb(38, 50, 56); transform-origin: 237.76px 462.325px;" id="eld6tkl7vnxcl" class="animable"></path><path d="M222.44,437.65a6.49,6.49,0,0,1,1.56-.14c1-.05,2.39-.08,4.05-.1h.12l.08.11,2.16,3.25c.18.28.35.55.53.81l-.18-.11,4.6.78.13,0,0,.12a24,24,0,0,1,1.14,3.71,24,24,0,0,1-1.54-3.57l.17.14-4.62-.69-.11,0-.07-.09c-.17-.27-.35-.54-.53-.81-.75-1.16-1.46-2.27-2.12-3.28l.2.11c-1.66,0-3.06-.06-4.05-.1A6.49,6.49,0,0,1,222.44,437.65Z" style="fill: rgb(38, 50, 56); transform-origin: 229.535px 441.745px;" id="eldzjhtj4jz3q" class="animable"></path><path d="M230.12,430.94a13.53,13.53,0,0,1,2.4-.71c1.51-.39,3.65-.9,6.12-1.48l.11,0,.09.06,2.33,1.7.9.65-.09,0c3.24.88,6.07,1.68,7.88,2.23h0l0,0a13.11,13.11,0,0,1,1.4,1.94,13.39,13.39,0,0,1-1.64-1.74l.08.05c-1.85-.44-4.69-1.16-7.93-2h0l0,0-.89-.65-2.33-1.71.21,0c-2.47.55-4.63,1-6.16,1.31A13.92,13.92,0,0,1,230.12,430.94Z" style="fill: rgb(38, 50, 56); transform-origin: 240.69px 432.04px;" id="elzzvorxl5c3g" class="animable"></path><path d="M402.62,477.39s-.08-.05-.2-.16l-.61-.45c-.55-.39-1.38-.94-2.45-1.66-2.16-1.43-5.32-3.49-9.34-6.08l.07,0-28.59-1.4h-.11l-.07-.09-10.9-14.5.23.1-11.17,1.51-2.54.35.1,0-4.4,2.8-.22.13-.14-.21-7.7-11.48.23.11L309.72,448l.18-.13-3.61,7.23,0,.09-.1,0-9.4,1.87.12-.1c-2.41,5.32-4.35,9.58-5.69,12.53-.67,1.44-1.19,2.56-1.55,3.35-.18.36-.31.65-.41.86a2.18,2.18,0,0,1-.16.29,1.32,1.32,0,0,1,.11-.31c.09-.22.21-.51.37-.88.34-.8.83-1.93,1.46-3.38l5.56-12.6,0-.08.09,0,9.39-1.93-.14.11c1.12-2.29,2.31-4.7,3.57-7.25l.05-.11h.13l15.08-1.67.15,0,.08.12,7.72,11.48-.35-.08,4.4-2.8.05,0h.06l2.54-.34,11.18-1.51.15,0,.09.12,10.87,14.52-.18-.09,28.59,1.55h0l0,0c4,2.62,7.14,4.73,9.26,6.2A19.16,19.16,0,0,1,402.62,477.39Z" style="fill: rgb(38, 50, 56); transform-origin: 345.86px 461.64px;" id="el7zrokgprzgm" class="animable"></path><path d="M412.66,473.91a1.12,1.12,0,0,1-.14-.19l-.35-.59-1.32-2.27L406,462.41c-4-7.21-9.64-17.17-15.91-28.34l.08.09-3.49-2.36-13.54-9.14.2,0-26.13,7.2.09-.09c-.47,2-.83,3.61-1.08,4.73-.13.51-.22.91-.3,1.22a2.17,2.17,0,0,1-.12.41,2.26,2.26,0,0,1,.06-.42c.05-.31.13-.72.23-1.23.22-1.13.55-2.72,1-4.77v-.07l.08,0,26.07-7.43.11,0,.1.06L387,431.37l3.49,2.36.06,0,0,.05,15.76,28.43,4.67,8.53c.52,1,.93,1.75,1.24,2.31.12.25.22.45.31.61S412.67,473.9,412.66,473.91Z" style="fill: rgb(38, 50, 56); transform-origin: 379.231px 448.06px;" id="eldql12sxoiy" class="animable"></path><path d="M389.14,416.46a2.62,2.62,0,0,1-.41-.28l-1.16-.86h0v0c-.13-.53-.29-1.19-.48-1.94v0L374.63,394l.19.11H369l.21-.13-4.44,8.1-.07.13h-.15l-9,.28-17.25.52.18-.09c-2.37,2.87-4.62,5.57-6.69,8.07l0,0,0,0-11.16,7,.06-.06-3.5,6.68-.94,1.76a4.11,4.11,0,0,1-.35.59,3.72,3.72,0,0,1,.27-.63c.22-.44.51-1,.87-1.79l3.37-6.75,0,0,0,0,11.08-7.13-.05.05c2.06-2.52,4.29-5.23,6.66-8.11l.07-.09h.11l17.25-.55,9-.27-.22.13,4.46-8.08.07-.13H369l5.86,0H375l.06.1,12.23,19.56v0c.16.75.3,1.41.42,1.95l0,0,1.11.92A2.61,2.61,0,0,1,389.14,416.46Z" style="fill: rgb(38, 50, 56); transform-origin: 352.52px 410.285px;" id="el1li8q1me10k" class="animable"></path><g id="el5wtzr6eoa6"><g style="opacity: 0.3; transform-origin: 362.775px 461.04px;" class="animable" id="elfzznn6sijcf"><polygon points="324.79 446.1 332.86 454.86 335.77 452.92 352.45 452.37 363.16 466.34 392.9 467.44 400.76 475.98 390.69 469.11 361.51 467.44 351.27 453.8 336.9 454.78 332.5 457.58 324.79 446.1" id="ely0rxni5b8u" class="animable" style="transform-origin: 362.775px 461.04px;"></polygon></g></g></g><defs>     <filter id="active" height="200%">         <feMorphology in="SourceAlpha" result="DILATED" operator="dilate" radius="2"></feMorphology>                <feFlood flood-color="#32DFEC" flood-opacity="1" result="PINK"></feFlood>        <feComposite in="PINK" in2="DILATED" operator="in" result="OUTLINE"></feComposite>        <feMerge>            <feMergeNode in="OUTLINE"></feMergeNode>            <feMergeNode in="SourceGraphic"></feMergeNode>        </feMerge>    </filter>    <filter id="hover" height="200%">        <feMorphology in="SourceAlpha" result="DILATED" operator="dilate" radius="2"></feMorphology>                <feFlood flood-color="#ff0000" flood-opacity="0.5" result="PINK"></feFlood>        <feComposite in="PINK" in2="DILATED" operator="in" result="OUTLINE"></feComposite>        <feMerge>            <feMergeNode in="OUTLINE"></feMergeNode>            <feMergeNode in="SourceGraphic"></feMergeNode>        </feMerge>            <feColorMatrix type="matrix" values="0   0   0   0   0                0   1   0   0   0                0   0   0   0   0                0   0   0   1   0 "></feColorMatrix>    </filter></defs></svg>